<svg xmlns="http://www.w3.org/2000/svg" viewBox="0 0 840.77 278"><defs><style>.cls-1,.cls-4{fill:#3e5c76;}.cls-2{fill:#282828;}.cls-3{fill:#fff;}.cls-4{stroke:#3e5c76;stroke-miterlimit:10;}</style></defs><title>LogoWatch</title><g id="Camada_2" data-name="Camada 2"><g id="Camada_1-2" data-name="Camada 1"><path class="cls-1" d="M194.61,57.68,157.86,172.54H116.34L97.8,111.17,78.27,172.54H36.76L0,57.68H39.87l20,65.31L81.06,57.68h35.61l20,66.13,21.17-66.13Z"/><path class="cls-1" d="M277.32,152.53H233.67l-7.71,20H186.58L236.79,57.68h38.07l50.21,114.86H285Zm-10.67-27.9L255.49,95.75l-11.15,28.88Z"/><path class="cls-1" d="M350.51,87.71H316.87v-30h106v30H389.23v84.83H350.51Z"/><path class="cls-1" d="M426.65,115.11c0-35.28,27.07-60,64-60,22.48,0,40.21,8.2,51.53,23L517.72,99.85C511,91.32,503,86.4,492.61,86.4c-16.08,0-26.91,11.16-26.91,28.71s10.83,28.72,26.91,28.72c10.34,0,18.38-4.92,25.11-13.46l24.45,21.83c-11.32,14.77-29,23-51.53,23C453.72,175.17,426.65,150.39,426.65,115.11Z"/><path class="cls-1" d="M666.55,57.68V172.54H627.82V130.21H592.05v42.33H553.33V57.68h38.72v40.7h35.77V57.68Z"/><path class="cls-2" d="M31.64,253.23l1.4-1.3c4.41,5.2,13.31,9.31,23.11,9.31,15.21,0,22-7,22-15.61,0-23.51-44.52-9.71-44.52-35.51,0-9.21,7-17.61,23.41-17.61,7.51,0,15.21,2.5,20.31,6.4l-1.1,1.6a33.3,33.3,0,0,0-19.11-6.1c-14.7,0-21.5,7.1-21.5,15.81,0,23.6,44.51,10.1,44.51,35.41,0,9.3-7.3,17.5-23.91,17.5C46.05,263.13,36.35,259,31.64,253.23Z"/><path class="cls-2" d="M165.89,260.93v1.91H119.28v-70h45.11v1.9H121.28v31.61h38.61v1.9H121.28v32.71Z"/><path class="cls-2" d="M198.21,227.82c0-20.2,15.4-35.31,35.91-35.31,9.2,0,17.81,2.9,23.81,8.9l-1.2,1.4c-6.4-6.1-14.11-8.4-22.61-8.4-19.31,0-33.91,14.51-33.91,33.41s14.6,33.42,33.91,33.42c8.5,0,16.21-2.41,22.61-8.51l1.2,1.4c-6,6-14.61,9-23.81,9C213.61,263.13,198.21,248,198.21,227.82Z"/><path class="cls-2" d="M296.15,233.52V192.81h2v40.62c0,18.7,9.1,27.81,25,27.81s25-9.11,25-27.81V192.81h2v40.71c0,19.81-10.3,29.61-27,29.61S296.15,253.33,296.15,233.52Z"/><path class="cls-2" d="M445.9,262.84l-17.81-24.71a42.48,42.48,0,0,1-8.2.7H398.18v24h-2v-70h23.71c17.21,0,27.51,8.5,27.51,23,0,11.3-6.3,19-17.2,21.81l18.2,25.21Zm-25.81-25.91c16.41,0,25.31-7.71,25.31-21.11s-8.9-21.11-25.31-21.11H398.18v42.22Z"/><path class="cls-2" d="M487.82,192.81h2v70h-2Z"/><path class="cls-2" d="M549.54,194.71h-26v-1.9h54v1.9h-26v68.13h-2Z"/><path class="cls-2" d="M629.47,239v23.81h-2V239L599,192.81h2.3l27.21,44.12,27.21-44.12H658Z"/><circle class="cls-2" cx="762.74" cy="78.38" r="23.92"/><circle class="cls-3" cx="773.19" cy="76.55" r="7.5"/><path class="cls-4" d="M828,103.48a70,70,0,0,1-130.52-.34,127.52,127.52,0,0,0,65.54,18A127.57,127.57,0,0,0,828,103.48Z"/><path class="cls-4" d="M828.07,52.86a128.28,128.28,0,0,0-130.77.35,69.84,69.84,0,0,1,15.16-23.89A70,70,0,0,1,823.87,43.89,68.43,68.43,0,0,1,828.07,52.86Z"/><path class="cls-2" d="M839.92,66.49c-.34-2.25-.77-4.47-1.3-6.68a78,78,0,0,0-151.19-2q-.31,1.18-.6,2.37a77.43,77.43,0,0,0-.45,33.61c.16.78.34,1.56.52,2.33a78,78,0,0,0,46.18,54L700.21,272.82,719.53,278,752.4,155.31a77.95,77.95,0,0,0,85.69-57.12c.15-.55.29-1.11.42-1.66A77.46,77.46,0,0,0,839.92,66.49ZM820.22,118a70,70,0,0,1-122.78-14.86c-.42-1.08-.81-2.18-1.18-3.29a69.66,69.66,0,0,1-1.11-40q.93-3.44,2.15-6.68a69.84,69.84,0,0,1,15.16-23.89A70,70,0,0,1,823.87,43.89a71.52,71.52,0,0,1,6.72,16.81,69.7,69.7,0,0,1-.22,35.41,73.83,73.83,0,0,1-2.41,7.37A69.57,69.57,0,0,1,820.22,118Z"/></g></g></svg>