<svg id="Camada_1" data-name="Camada 1" xmlns="http://www.w3.org/2000/svg" viewBox="0 0 2000 2000"><defs><style>.cls-1{fill:#612de0;}.cls-2{fill:#353535;}</style></defs><title>PurpleMindSecLogo</title><path class="cls-1" d="M435.2,1160.62l-.82-150.86-73.19,122.8H325.4l-72.78-118.74v146.8H178.21V876h66.28l100,164.28L442.11,876h66.28l.81,284.64Z"/><path class="cls-1" d="M554,874.76c0-23.18,18.7-41.07,47.17-41.07s47.16,16.67,47.16,39.85c0,24.4-18.7,42.29-47.16,42.29S554,897.94,554,874.76Zm8.53,65.47h77.26v220.39H562.49Z"/><path class="cls-1" d="M924.4,1034.56v126.06H847.14V1047.17c0-31.72-13.82-45.13-36.19-45.13-24.81,0-43.92,15.45-43.92,52v106.54H689.77V940.23h73.61v24c17.48-18.3,42.29-27.65,69.94-27.65C885,936.57,924.4,966.25,924.4,1034.56Z"/><path class="cls-1" d="M1210.28,858.9v301.72h-73.6v-22c-14.64,17.49-36.19,25.62-64.65,25.62-60.19,0-108.57-43.92-108.57-114.27,0-69.93,48.38-113.44,108.57-113.44,25.61,0,46.35,7.32,61,22.77V858.9Zm-76,191.11c0-33.34-19.93-52-46-52-26.43,0-46.36,18.71-46.36,52,0,33.76,19.93,52.87,46.36,52.87C1114.31,1102.88,1134.24,1083.77,1134.24,1050Z"/><path class="cls-2" d="M1243.64,1135l26.43-59.37c25.22,16.68,61,28.06,93.93,28.06,33.35,0,46.36-9.35,46.36-23.18,0-45.13-161.84-12.2-161.84-117.92,0-50.83,41.48-92.3,126-92.3,37,0,75.24,8.54,103.29,24.8l-24.8,59.77c-27.25-14.63-54.09-22-78.89-22-33.75,0-46,11.38-46,25.62,0,43.51,161.43,11,161.43,115.88,0,49.61-41.48,91.9-126.05,91.9C1316.84,1166.31,1270.48,1153.71,1243.64,1135Z"/><path class="cls-2" d="M1747.06,1069.94H1586.85c6.5,22.37,25.62,35.38,54.08,35.38,21.56,0,35.78-6.1,50.83-19.11l40.66,42.29c-21.14,23.58-52.05,35.78-93.93,35.78-78.48,0-129.31-48.39-129.31-114.27,0-66.27,51.65-113.44,121.18-113.44,65.06,0,117.92,41.47,117.92,114.26C1748.28,1056.52,1747.47,1063.84,1747.06,1069.94Zm-161.43-40.66h90.27c-4.06-23.18-21.14-37.82-45.13-37.82S1590.1,1006.1,1585.63,1029.28Z"/><path class="cls-2" d="M1770.26,1050c0-66.27,52.45-113.44,126.46-113.44,50,0,88.24,22.36,103.28,60.58l-59.77,30.5c-10.57-20.74-26-29.69-43.92-29.69-26.83,0-48,18.71-48,52,0,34.16,21.15,52.87,48,52.87,17.89,0,33.35-9,43.92-29.68l59.77,30.49c-15,38.23-53.26,60.59-103.28,60.59C1822.71,1164.28,1770.26,1117.11,1770.26,1050Z"/><path class="cls-2" d="M7.88,1044.11c-11.56,16.31-3.31,38.05,17.34,46,4.54,1.74,5.27,3.06,3.93,7.12-5.64,17.17,6.56,35.28,27.63,40,5.67,1.28,9,3.25,12,7.49,10.78,15.53,33.24,22.57,54.51,17.75,20.4-4.64,34.76-20.12,34.78-37.66q0-86.11,0-172.23c0-8.57-10.58-17.25-21.06-17.31-.66,0-1.33.08-2,0-3.4-.16-5.57-1.9-5.62-4.42s2-4.29,5.45-4.52a33.14,33.14,0,0,1,22.74,6.68c.83-1.19.45-2.26.45-3.27q0-21,0-41.93c0-13.28-12.27-20.93-28.13-17.58a191.07,191.07,0,0,0-38.85,12.54c1.4,1.13,3.24,1.07,4.81,1.54,11.13,3.39,18.92,9.53,23.29,18.53,1.71,3.49.67,5.89-2.8,6.91-3.23,1-5.65-.26-7.43-3.72-5.45-10.66-18.33-16.42-31.52-14.1C63.64,894.41,54.55,903.85,55,915.23a16.67,16.67,0,0,0,.61,3.5c1.42,5.61,1.54,5.69,8.15,6.64,24.59,3.57,41.34,18.17,44,38.41a19.12,19.12,0,0,1,.15,3.54,5.09,5.09,0,0,1-5.68,4.74c-3.34-.27-5.26-1.9-5.29-4.71a28,28,0,0,0-1.94-10.14c-7.19-18-30.08-27.5-52.28-21.45-22,6-33.21,25.61-25,43.3,1.3,2.79.41,4.67-2.28,6.44-14.16,9.29-19.2,24.42-12.75,38s22.46,21.88,40.45,21.13c2.74-.11,5.33-.08,7,2,2.39,3,0,6.52-4.76,6.83-12.72.8-24.32-1.74-34.74-7.76C9.79,1045.2,8.83,1044.67,7.88,1044.11Zm62.21,42.42c.37-2.61,2.29-4,5.53-4.11a21.78,21.78,0,0,1,4,0c3.32.54,4.31-.49,4.17-3.15a21,21,0,0,1,1-5.72c5.36-22.12,29.91-32.29,50-34.22,3.73-.35,6.24,1.22,6.64,3.77.41,2.72-1.65,4.73-5.58,5.13a65.59,65.59,0,0,0-13.38,2.7c-17.38,5.58-27.59,16.86-27.9,30.59,0,2,.35,3,2.93,3.74a40,40,0,0,1,13.12,6.42c11.91,8.73,17.28,20,19.16,32.61.38,4.08-1.24,6.31-4.83,6.56-3.38.25-5.41-1.55-6-5.46a46.72,46.72,0,0,0-3-11c-5.08-11.85-14.18-20.25-30-22.56-3.47-.51-7.1-.31-10.64-.61C71.91,1091,69.76,1089,70.09,1086.53ZM50.48,1028c-.12-2.65,2.33-4.48,6.65-4.69,13.69-.69,21.95-7.25,27.89-16.79-1.56-.26-2.81-.48-4.09-.64-26.43-3.31-45-21.55-44.17-43.39.15-3.63,2.36-5.81,5.79-5.67s5.33,2.28,5.22,5.74a27,27,0,0,0,1.29,10.2c4.45,12.33,14.23,20.52,29.51,23.6,15.44,3.13,28.92-.37,40-9.76,3.59-3.06,6.41-3.59,9.12-1.66s2.46,4.65-1.1,7.81a48.44,48.44,0,0,1-22.43,11.51c-5.07,1.05-7.58,3-9.85,6.83-7.33,12.26-19,20.16-36.39,21.11C53.34,1032.47,50.6,1030.8,50.48,1028Z"/></svg>