<svg id="Iris" xmlns="http://www.w3.org/2000/svg" viewBox="0 0 1000 1000"><defs><style>.cls-1{fill:#fff;}.cls-2{fill:#8962e8;}.cls-3{fill:#282828;}.cls-4{fill:#612de0;}</style></defs><title>PurpleIris</title><path class="cls-1" d="M999,499.64c0,14.17-.59,28.45-1.85,42.72-.2,2.08-.4,4.2-.66,6.31-.23,3.4-.63,6.77-1.06,10.18-.59,4.79-1.25,9.58-1.92,14.37-.16,1-.26,1.88-.46,2.78-.59,4-1.29,7.93-2,11.83-.26,1.52-.53,3.07-.83,4.59-.59,3-1.15,6-1.81,9-.37,2-.83,4-1.33,6.08-.76,3.66-1.65,7.33-2.57,11-.7,2.94-1.39,6-2.25,8.89-.1.59-.3,1.09-.43,1.69-1.55,5.61-3.14,11.23-4.79,16.81q-1.53,5.16-3.27,10.21c-.69,2.25-1.49,4.43-2.25,6.61-1.32,4.1-2.81,8.2-4.33,12.16-1.15,3.27-2.44,6.44-3.63,9.65-.33.83-.66,1.62-1,2.38-1.79,4.39-3.57,8.75-5.49,13.12-1.85,4.19-3.76,8.42-5.68,12.59-.2.39-.4.82-.6,1.22-2,4.26-4.09,8.56-6.21,12.72a3.18,3.18,0,0,0-.23.43c-2,3.86-4,7.63-6,11.33s-3.9,7.17-6,10.67c-1.13,2.12-2.35,4.17-3.64,6.22-1.38,2.51-2.94,5-4.52,7.43-.57,1.09-1.23,2.08-1.92,3.14-1.82,2.94-3.73,5.85-5.72,8.82-3.1,4.93-6.44,9.72-9.84,14.44-2.68,3.83-5.49,7.63-8.3,11.33-2.64,3.44-5.25,6.91-8,10.28-1.09,1.42-2.25,2.84-3.41,4.23-1.78,2.25-3.63,4.49-5.55,6.67-4,4.86-8.19,9.59-12.49,14.28-2.24,2.48-4.46,4.92-6.77,7.27-6.28,6.64-12.75,13.12-19.4,19.33-9.15,8.69-18.67,17-28.45,24.94-.49.37-1,.76-1.55,1.19-3.43,2.85-6.94,5.52-10.47,8.23-.63.5-1.23.93-1.79,1.32-3.33,2.51-6.64,5-10,7.34-3.83,2.77-7.63,5.38-11.53,8s-7.73,5.18-11.69,7.66-7.87,4.93-11.9,7.31-8,4.72-12.09,6.93-8.2,4.5-12.29,6.68c-3.71,1.92-7.41,3.83-11.17,5.68-.73.33-1.36.63-2,1-4,1.92-7.9,3.8-12,5.65a481.76,481.76,0,0,1-92.81,31.52c-4.53,1.09-9.06,2.12-13.68,3.08,0-.07-.14,0-.23,0-4.56.95-9.16,1.78-13.78,2.61s-9.26,1.55-14,2.24c-9.31,1.42-18.8,2.51-28.25,3.27s-19,1.42-28.55,1.66a503.48,503.48,0,0,1-225.64-46.63c-5.25-2.38-10.38-4.85-15.43-7.5-12.66-6.37-25-13.35-36.91-20.78-2.44-1.45-4.79-3-7.17-4.53-2.87-1.88-5.68-3.7-8.52-5.61-1.82-1.26-3.64-2.45-5.42-3.74-7-4.79-13.68-9.71-20.29-14.83-1.78-1.36-3.5-2.68-5.22-4.1-3-2.38-6-4.73-8.89-7.17-3.53-2.94-7.07-6-10.44-9-2.48-2.11-4.86-4.29-7.3-6.51-2.12-1.85-4.07-3.76-6.05-5.65-6-5.74-11.89-11.56-17.68-17.51-.26-.26-.53-.56-.76-.82-3.4-3.57-6.7-7.17-10-10.81s-6.47-7.3-9.58-11q-8.86-10.46-17.08-21.31c-.66-.83-1.22-1.59-1.82-2.45-2.67-3.57-5.28-7.23-7.93-10.87,0,0,0-.07,0-.07Q84.27,776,76.5,763.61c-5-8-9.75-16.19-14.34-24.49a2.55,2.55,0,0,1-.33-.66A500,500,0,0,1,14.75,616c-1.13-4.93-2.28-9.92-3.31-14.9-.82-4.1-1.68-8.27-2.44-12.36s-1.42-8.33-2.12-12.49c-1.25-8.3-2.34-16.69-3.24-25.11-.39-4.17-.79-8.4-1.15-12.63-.27-3.5-.53-6.93-.73-10.4,0-1.16-.1-2.32-.17-3.47-.39-8-.59-16.1-.59-24.26,0-14.24.66-28.64,1.85-43,.2-1.78.33-3.6.6-5.38.29-3.64.69-7.24,1.12-10.87.53-4.17,1.06-8.33,1.68-12.49.4-2.68.76-5.29,1.29-8,.37-2.84.89-5.58,1.39-8.39.79-4.49,1.69-9,2.64-13.48.37-2.08.83-4.16,1.33-6.25s.89-4.26,1.42-6.44c.33-1.29.62-2.61,1-3.9a2.56,2.56,0,0,1,.13-.69c.83-3.54,1.79-7.11,2.68-10.64,1.39-5.29,2.94-10.61,4.56-15.83,1.32-4.43,2.74-8.85,4.19-13.21,1.29-3.94,2.71-7.9,4.1-11.83.53-1.46,1-2.88,1.59-4.33,1.49-4,3-8,4.62-11.9Q40,306.81,43,300c1.85-4.19,3.7-8.42,5.69-12.59.19-.39.39-.82.59-1.22,2-4.26,4.1-8.56,6.21-12.72a2.68,2.68,0,0,1,.27-.43c2-3.86,3.93-7.63,6-11.33,1.85-3.6,3.9-7.17,6-10.67,1.15-2.12,2.37-4.17,3.66-6.22,1.85-3.2,3.77-6.34,5.75-9.48,1.79-2.94,3.7-5.88,5.55-8.76,1.16-1.78,2.38-3.6,3.61-5.35q7.88-11.85,16.48-23c1.75-2.38,3.57-4.69,5.39-7a20.17,20.17,0,0,1,1.42-1.75c2.54-3.24,5.15-6.51,7.83-9.65,2.91-3.47,5.92-6.91,8.89-10.31,2.64-2.94,5.25-5.88,8-8.75,3.64-4,7.4-7.94,11.34-11.77,3.3-3.34,6.64-6.67,10-9.84a3.83,3.83,0,0,1,.72-.73c9.88-9.39,20.26-18.41,30.93-27,3.54-2.91,7.11-5.65,10.77-8.46a4.61,4.61,0,0,1,.7-.53q11-8.23,22.33-15.93c3.84-2.61,7.74-5.18,11.7-7.66a498.4,498.4,0,0,1,48.74-27.23,505,505,0,0,1,78.24-30.33c4.53-1.36,9-2.65,13.55-3.77,8.82-2.38,17.71-4.43,26.7-6.28a7.08,7.08,0,0,1,1.75-.39c4.29-.83,8.59-1.66,12.88-2.42,4.66-.79,9.32-1.55,14-2.24q14-2,28.22-3.27c9.48-.83,19-1.33,28.55-1.66A503.48,503.48,0,0,1,710.94,47.89c5.19,2.44,10.31,4.92,15.43,7.5,12.66,6.44,25,13.35,36.91,20.78,2.44,1.45,4.79,3,7.17,4.53,2.87,1.78,5.68,3.66,8.52,5.61,1.82,1.26,3.64,2.45,5.42,3.74q10.36,7.08,20.29,14.83c1.78,1.36,3.5,2.68,5.22,4.1,3,2.28,6,4.73,8.89,7.17,3.53,2.94,7.07,5.95,10.44,9,2.48,2.11,4.86,4.29,7.3,6.51,2.05,1.85,4.07,3.7,6.05,5.65,6,5.74,11.89,11.56,17.68,17.51.26.33.53.56.76.82,3.4,3.57,6.7,7.17,10,10.81s6.47,7.3,9.58,11c5.91,6.94,11.6,14.08,17.08,21.31.6.76,1.16,1.59,1.82,2.45,2.67,3.57,5.28,7.2,7.93,10.87v.07q4.22,5.89,8.22,12c.34.53.67,1,1,1.55,2.31,3.54,4.63,7.11,6.84,10.74,2.11,3.34,4.16,6.71,6.21,10.18l1.36,2.31c2,3.57,4.09,7.17,6.08,10.74.82,1.49,1.58,2.94,2.41,4.49,1.88,3.44,3.67,6.91,5.45,10.35a6.46,6.46,0,0,0,.53,1c2,4,3.93,8.07,5.88,12.16,2,4.4,4.1,8.83,6,13.32s3.84,8.95,5.62,13.41c3.63,9,7,18.18,10.11,27.46,1.59,4.59,3.07,9.25,4.46,13.91s2.74,9.42,4,14.14c1.29,4.56,2.45,9.16,3.6,13.82,0,.16,0,.26,0,.39,1.09,4.83,2.18,9.58,3.24,14.47a2.05,2.05,0,0,0,.09.43c.67,2.95,1.23,5.89,1.72,8.83.4,1.81.73,3.6,1,5.45.66,3.5,1.22,7,1.75,10.51.16.89.3,1.78.43,2.67.53,3.24,1,6.58,1.35,9.85.56,4.16,1,8.33,1.46,12.52s.82,8.46,1.15,12.69c.27,3.44.53,7,.73,10.47,0,1.29.1,2.58.17,3.84.19,3.73.33,7.37.39,11.07C998.93,491.11,999,495.34,999,499.64Z"/><path class="cls-2" d="M788.42,499.78c0,8.2-.33,16.46-1.07,24.7-.11,1.22-.22,2.43-.37,3.66-.15,2-.37,3.91-.63,5.88q-.51,4.15-1.11,8.31c-.08.56-.15,1.08-.26,1.6-.34,2.28-.73,4.58-1.14,6.83-.15.89-.3,1.78-.48,2.67-.34,1.73-.67,3.43-1,5.18-.22,1.13-.48,2.32-.78,3.51-.44,2.13-1,4.25-1.48,6.38-.4,1.71-.81,3.45-1.29,5.14-.07.34-.18.63-.26,1-.89,3.25-1.81,6.51-2.78,9.72-.58,2-1.21,4-1.88,5.92-.4,1.3-.85,2.55-1.29,3.81-.78,2.37-1.63,4.73-2.51,7-.67,1.88-1.41,3.73-2.11,5.57-.19.48-.37.93-.56,1.37-1,2.55-2.06,5.07-3.18,7.58s-2.18,4.88-3.28,7.29l-.34.7c-1.18,2.47-2.37,5-3.59,7.35a2,2,0,0,0-.15.26c-1.14,2.23-2.29,4.4-3.47,6.55s-2.25,4.14-3.44,6.17c-.66,1.22-1.37,2.41-2.11,3.59-.81,1.44-1.69,2.88-2.62,4.29a17.93,17.93,0,0,1-1.11,1.81q-1.56,2.55-3.29,5.1c-1.81,2.85-3.73,5.62-5.7,8.35-1.55,2.22-3.17,4.41-4.8,6.55s-3,4-4.62,6c-.63.82-1.3,1.63-2,2.44-1,1.3-2.1,2.59-3.21,3.84-2.29,2.82-4.73,5.55-7.2,8.26-1.3,1.43-2.6,2.84-3.93,4.21-3.62,3.84-7.36,7.58-11.2,11.16-5.29,5-10.8,9.83-16.46,14.42-.29.22-.59.44-.88.7-2,1.63-4,3.19-6.06,4.74-.37.29-.71.55-1,.77-1.93,1.45-3.84,2.88-5.77,4.25-2.21,1.6-4.4,3.12-6.65,4.63s-4.47,3-6.77,4.43-4.55,2.85-6.87,4.22-4.62,2.74-7,4-4.73,2.59-7.1,3.85c-2.15,1.1-4.28,2.21-6.47,3.28l-1.15.56c-2.29,1.11-4.58,2.18-6.91,3.25a278.75,278.75,0,0,1-53.65,18.23c-2.62.63-5.25,1.22-7.91,1.78,0,0-.07,0-.14,0-2.64.55-5.29,1-8,1.51s-5.35.88-8.06,1.29c-5.4.82-10.86,1.45-16.33,1.89s-11,.82-16.5,1a290.68,290.68,0,0,1-130.43-27q-4.54-2-8.91-4.32-11-5.55-21.34-12c-1.4-.85-2.77-1.74-4.14-2.63-1.66-1.07-3.29-2.14-4.92-3.25-1.06-.71-2.1-1.41-3.14-2.14-4-2.78-7.91-5.62-11.72-8.59-1-.77-2-1.54-3-2.36-1.74-1.37-3.47-2.73-5.14-4.14-2-1.7-4.07-3.43-6-5.18-1.43-1.22-2.81-2.48-4.21-3.77-1.22-1.07-2.36-2.18-3.51-3.26-3.48-3.32-6.87-6.68-10.21-10.12-.15-.15-.3-.33-.44-.48-2-2.07-3.88-4.14-5.76-6.25s-3.75-4.21-5.55-6.36q-5.11-6-9.87-12.31c-.37-.48-.71-.93-1-1.41-1.56-2.06-3.07-4.18-4.59-6.28,0,0,0,0,0,0q-4.81-6.87-9.31-14c-2.88-4.63-5.62-9.36-8.28-14.16a1.23,1.23,0,0,1-.19-.38A289.32,289.32,0,0,1,219.53,567c-.66-2.85-1.33-5.73-1.92-8.61-.48-2.37-1-4.77-1.41-7.14s-.81-4.81-1.21-7.21q-1.11-7.2-1.89-14.53c-.23-2.4-.45-4.84-.67-7.29-.15-2-.3-4-.41-6,0-.67-.07-1.34-.11-2-.22-4.65-.33-9.31-.33-14,0-8.24.37-16.57,1.07-24.88.11-1,.19-2.07.34-3.11.18-2.11.4-4.17.66-6.28.3-2.4.6-4.81,1-7.21.22-1.55.44-3.07.74-4.62s.51-3.22.8-4.84c.45-2.6,1-5.22,1.52-7.81.22-1.18.48-2.4.78-3.59s.52-2.47.81-3.73c.19-.74.37-1.52.6-2.26a1.34,1.34,0,0,1,.07-.39c.47-2,1-4.12,1.55-6.15.81-3.06,1.7-6.14,2.63-9.16.77-2.56,1.58-5.11,2.43-7.63.74-2.28,1.56-4.58,2.37-6.83.3-.85.6-1.67.92-2.52.85-2.32,1.74-4.62,2.67-6.87,1.07-2.67,2.17-5.33,3.32-7.95,1.08-2.44,2.15-4.88,3.29-7.29.11-.22.22-.48.33-.7,1.15-2.47,2.38-5,3.6-7.35.07-.11.11-.19.15-.26,1.13-2.23,2.28-4.4,3.47-6.55s2.25-4.14,3.43-6.17c.67-1.22,1.38-2.41,2.12-3.59q1.59-2.76,3.32-5.47c1-1.7,2.15-3.4,3.21-5.06.67-1,1.38-2.08,2.08-3.11q4.55-6.82,9.54-13.31c1-1.37,2.06-2.7,3.1-4,.26-.33.52-.67.82-1,1.48-1.88,3-3.77,4.54-5.59,1.67-2,3.4-4,5.14-5.94,1.52-1.71,3-3.41,4.59-5.07,2.1-2.29,4.29-4.58,6.55-6.8,1.91-1.92,3.84-3.85,5.79-5.7a2,2,0,0,1,.41-.41C307,285.57,313,280.35,319.2,275.4c2-1.67,4.11-3.26,6.22-4.88a3.2,3.2,0,0,1,.4-.3C330,267,334.33,264,338.73,261c2.22-1.51,4.47-3,6.77-4.43a289.43,289.43,0,0,1,28.17-15.75,293.46,293.46,0,0,1,45.21-17.53c2.63-.78,5.21-1.52,7.85-2.18,5.09-1.36,10.23-2.55,15.41-3.62a4.29,4.29,0,0,1,1-.23c2.49-.48,5-1,7.44-1.4,2.7-.45,5.39-.88,8.09-1.29q8.1-1.17,16.3-1.89c5.48-.48,11-.78,16.5-1a290.68,290.68,0,0,1,130.43,27c3,1.39,6,2.84,8.91,4.32q11,5.6,21.34,12c1.4.85,2.77,1.74,4.14,2.63,1.66,1,3.29,2.11,4.92,3.25,1.06.71,2.1,1.41,3.14,2.14,4,2.74,7.91,5.59,11.72,8.59,1,.77,2,1.54,3,2.36,1.74,1.33,3.44,2.73,5.14,4.14,2,1.7,4.07,3.43,6,5.18,1.43,1.22,2.81,2.48,4.21,3.77,1.18,1.07,2.36,2.14,3.51,3.26,3.48,3.32,6.87,6.68,10.21,10.12.15.18.3.33.44.48,2,2.07,3.88,4.14,5.76,6.25s3.75,4.21,5.55,6.36c3.41,4,6.7,8.13,9.87,12.31.34.45.67.93,1,1.41,1.56,2.06,3.07,4.18,4.59,6.28v0c1.63,2.29,3.21,4.58,4.76,7,.19.3.38.59.6.89,1.33,2,2.66,4.1,3.95,6.2,1.22,1.93,2.4,3.89,3.59,5.89l.77,1.33c1.19,2.06,2.38,4.14,3.51,6.21.49.85.93,1.7,1.41,2.59,1.08,2,2.11,4,3.14,6a6.19,6.19,0,0,0,.3.56c1.15,2.32,2.29,4.65,3.41,7,1.17,2.56,2.36,5.11,3.47,7.69s2.21,5.18,3.25,7.77c2.11,5.22,4.07,10.5,5.84,15.86.93,2.66,1.77,5.36,2.59,8.06s1.59,5.44,2.33,8.17,1.41,5.29,2.07,8c0,.08,0,.15,0,.23.63,2.78,1.26,5.54,1.86,8.35a2.5,2.5,0,0,0,.07.26c.37,1.7.7,3.41,1,5.1.22,1,.41,2.08.59,3.15.37,2,.7,4,1,6.06.11.52.19,1,.26,1.55.3,1.89.56,3.81.78,5.7.33,2.4.59,4.81.85,7.24s.48,4.88.67,7.33c.15,2,.3,4,.41,6.05,0,.75.07,1.49.11,2.23.11,2.15.18,4.25.22,6.4C788.39,494.86,788.42,497.31,788.42,499.78Z"/><circle class="cls-3" cx="499.86" cy="502.41" r="153.03"/><circle class="cls-1" cx="566.7" cy="484.31" r="47.98"/><path class="cls-3" d="M917.06,663A445.25,445.25,0,0,1,797,835c-108.77,96.3-262.15,137.8-412.95,97.47A448.16,448.16,0,0,1,82.19,660.81,815.56,815.56,0,0,0,501.41,776,816.1,816.1,0,0,0,917.06,663Z"/><path class="cls-3" d="M917.76,339.18A820.65,820.65,0,0,0,81.31,341.4a438.61,438.61,0,0,1,28.45-60.94,445.06,445.06,0,0,1,68.5-91.85C287.67,75.8,453.29,24,615.86,67.54a446.24,446.24,0,0,1,275,214.27A441,441,0,0,1,917.76,339.18Z"/><path class="cls-4" d="M998.8,486.82c-.06-3.7-.2-7.34-.39-11.07-.07-1.26-.14-2.55-.17-3.84-.2-3.5-.46-7-.73-10.47-.33-4.23-.69-8.46-1.15-12.69s-.9-8.36-1.46-12.52c-.39-3.27-.82-6.61-1.35-9.85-.13-.89-.27-1.78-.43-2.67-.53-3.54-1.09-7-1.75-10.51-.3-1.85-.63-3.64-1-5.45-.49-2.94-1.05-5.88-1.72-8.83a2.05,2.05,0,0,1-.09-.43c-1.06-4.89-2.15-9.64-3.24-14.47,0-.13,0-.23,0-.39-1.15-4.66-2.31-9.26-3.6-13.82-1.29-4.72-2.61-9.45-4-14.14s-2.87-9.32-4.46-13.91c-3.07-9.28-6.48-18.44-10.11-27.46-1.78-4.46-3.63-9-5.62-13.41s-4-8.92-6-13.32c-1.95-4.09-3.9-8.13-5.88-12.16a6.46,6.46,0,0,1-.53-1c-1.78-3.44-3.57-6.91-5.45-10.35-.83-1.55-1.59-3-2.41-4.49-2-3.57-4-7.17-6.08-10.74l-1.36-2.31c-2.05-3.47-4.1-6.84-6.21-10.18-2.21-3.63-4.53-7.2-6.84-10.74-.36-.53-.69-1-1-1.55q-4-6.09-8.22-12V212c-2.65-3.67-5.26-7.3-7.93-10.87-.66-.86-1.22-1.69-1.82-2.45-5.48-7.23-11.17-14.37-17.08-21.31-3.11-3.7-6.31-7.4-9.58-11s-6.58-7.24-10-10.81c-.23-.26-.5-.49-.76-.82-5.79-5.95-11.63-11.77-17.68-17.51-2-2-4-3.8-6.05-5.65-2.44-2.22-4.82-4.4-7.3-6.51-3.37-3-6.91-6-10.44-9-2.91-2.44-5.88-4.89-8.89-7.17-1.72-1.42-3.44-2.74-5.22-4.1q-9.91-7.77-20.29-14.83c-1.78-1.29-3.6-2.48-5.42-3.74-2.84-2-5.65-3.83-8.52-5.61-2.38-1.52-4.73-3.08-7.17-4.53-11.9-7.43-24.25-14.34-36.91-20.78-5.12-2.58-10.24-5.06-15.43-7.5A503.48,503.48,0,0,0,485.3,1.26c-9.55.33-19.07.83-28.55,1.66s-18.87,1.91-28.22,3.27c-4.66.69-9.32,1.45-14,2.24-4.29.76-8.59,1.59-12.88,2.42a7.08,7.08,0,0,0-1.75.39c-9,1.85-17.88,3.9-26.7,6.28-4.56,1.12-9,2.41-13.55,3.77a505,505,0,0,0-78.24,30.33,498.4,498.4,0,0,0-48.74,27.23c-4,2.48-7.86,5.05-11.7,7.66q-11.4,7.68-22.33,15.93a4.61,4.61,0,0,0-.7.53c-3.66,2.81-7.23,5.55-10.77,8.46-10.67,8.55-21.05,17.57-30.93,27a3.83,3.83,0,0,0-.72.73c-3.37,3.17-6.71,6.5-10,9.84-3.94,3.83-7.7,7.8-11.34,11.77-2.71,2.87-5.32,5.81-8,8.75-3,3.4-6,6.84-8.89,10.31-2.68,3.14-5.29,6.41-7.83,9.65a20.17,20.17,0,0,0-1.42,1.75c-1.82,2.28-3.64,4.59-5.39,7q-8.62,11.21-16.48,23c-1.23,1.75-2.45,3.57-3.61,5.35-1.85,2.88-3.76,5.82-5.55,8.76-2,3.14-3.9,6.28-5.75,9.48-1.29,2.05-2.51,4.1-3.66,6.22-2.05,3.5-4.1,7.07-6,10.67-2.05,3.7-4,7.47-6,11.33a2.68,2.68,0,0,0-.27.43c-2.11,4.16-4.23,8.46-6.21,12.72-.2.4-.4.83-.59,1.22-2,4.17-3.84,8.4-5.69,12.59q-3,6.84-5.75,13.78c-1.61,3.9-3.13,7.87-4.62,11.9C32,327.09,31.53,328.51,31,330c-1.39,3.93-2.81,7.89-4.1,11.83-1.45,4.36-2.87,8.78-4.19,13.21-1.62,5.22-3.17,10.54-4.56,15.83-.89,3.53-1.85,7.1-2.68,10.64a2.56,2.56,0,0,0-.13.69c-.4,1.29-.69,2.61-1,3.9-.53,2.18-1,4.3-1.42,6.44s-1,4.17-1.33,6.25c-1,4.46-1.85,9-2.64,13.48-.5,2.81-1,5.55-1.39,8.39-.53,2.68-.89,5.29-1.29,8-.62,4.16-1.15,8.32-1.68,12.49-.43,3.63-.83,7.23-1.12,10.87-.27,1.78-.4,3.6-.6,5.38C1.66,471.72,1,486.12,1,500.36c0,8.16.2,16.23.59,24.26.07,1.15.14,2.31.17,3.47.2,3.47.46,6.9.73,10.4.36,4.23.76,8.46,1.15,12.63.9,8.42,2,16.81,3.24,25.11.7,4.16,1.42,8.32,2.12,12.49s1.62,8.26,2.44,12.36c1,5,2.18,10,3.31,14.9A500,500,0,0,0,61.83,738.46a2.55,2.55,0,0,0,.33.66c4.59,8.3,9.35,16.49,14.34,24.49Q84.24,776,92.59,787.89s0,.07,0,.07c2.65,3.64,5.26,7.3,7.93,10.87.6.86,1.16,1.62,1.82,2.45q8.22,10.85,17.08,21.31c3.11,3.7,6.31,7.4,9.58,11s6.58,7.24,10,10.81c.23.26.5.56.76.82,5.79,5.95,11.63,11.77,17.68,17.51,2,1.89,3.93,3.8,6.05,5.65,2.44,2.22,4.82,4.4,7.3,6.51,3.37,3,6.91,6,10.44,9,2.88,2.44,5.88,4.79,8.89,7.17,1.72,1.42,3.44,2.74,5.22,4.1,6.61,5.12,13.32,10,20.29,14.83,1.78,1.29,3.6,2.48,5.42,3.74,2.84,1.91,5.65,3.73,8.52,5.61,2.38,1.52,4.73,3.08,7.17,4.53,11.9,7.43,24.25,14.41,36.91,20.78,5.05,2.65,10.18,5.12,15.43,7.5A503.48,503.48,0,0,0,514.7,998.74c9.55-.24,19.07-.76,28.55-1.66s18.94-1.85,28.25-3.27c4.69-.69,9.35-1.45,14-2.24s9.22-1.66,13.78-2.61c.09,0,.19-.07.23,0,4.62-1,9.15-2,13.68-3.08A481.76,481.76,0,0,0,706,954.36c4.06-1.85,8-3.73,12-5.65.66-.33,1.29-.63,2-1,3.76-1.85,7.46-3.76,11.17-5.68,4.09-2.18,8.26-4.36,12.29-6.68s8.13-4.59,12.09-6.93,8-4.8,11.9-7.31,7.86-5,11.69-7.66,7.7-5.26,11.53-8c3.34-2.35,6.65-4.83,10-7.34.56-.39,1.16-.82,1.79-1.32,3.53-2.71,7-5.38,10.47-8.23.53-.43,1.06-.82,1.55-1.19,9.78-8,19.3-16.25,28.45-24.94,6.65-6.21,13.12-12.69,19.4-19.33,2.31-2.35,4.53-4.79,6.77-7.27,4.3-4.69,8.49-9.42,12.49-14.28,1.92-2.18,3.77-4.42,5.55-6.67,1.16-1.39,2.32-2.81,3.41-4.23,2.74-3.37,5.35-6.84,8-10.28,2.81-3.7,5.62-7.5,8.3-11.33,3.4-4.72,6.74-9.51,9.84-14.44,2-3,3.9-5.88,5.72-8.82.69-1.06,1.35-2,1.92-3.14,1.58-2.44,3.14-4.92,4.52-7.43,1.29-2.05,2.51-4.1,3.64-6.22,2.08-3.5,4.06-7.07,6-10.67s4-7.47,6-11.33a3.18,3.18,0,0,1,.23-.43c2.12-4.16,4.17-8.46,6.21-12.72.2-.4.4-.83.6-1.22,1.92-4.17,3.83-8.4,5.68-12.59,1.92-4.37,3.7-8.73,5.49-13.12.33-.76.66-1.55,1-2.38,1.19-3.21,2.48-6.38,3.63-9.65,1.52-4,3-8.06,4.33-12.16.76-2.18,1.56-4.36,2.25-6.61q1.74-5.05,3.27-10.21c1.65-5.58,3.24-11.2,4.79-16.81.13-.6.33-1.1.43-1.69.86-2.94,1.55-5.95,2.25-8.89.92-3.7,1.81-7.37,2.57-11,.5-2.09,1-4.13,1.33-6.08.66-3,1.22-6,1.81-9,.3-1.52.57-3.07.83-4.59.69-3.9,1.39-7.87,2-11.83.2-.9.3-1.79.46-2.78.67-4.79,1.33-9.58,1.92-14.37.43-3.41.83-6.78,1.06-10.18.26-2.11.46-4.23.66-6.31,1.26-14.27,1.85-28.55,1.85-42.72C999,495.34,998.93,491.11,998.8,486.82Zm-66.31,129c-2,7.43-4.17,14.7-6.48,21.87-1,3.2-2.11,6.41-3.2,9.52-.14.39-.3.82-.43,1.28-1,2.71-2,5.39-3,8.07-.19.62-.46,1.35-.72,2-.2.46-.3.89-.5,1.35-.39,1-.79,2.05-1.15,3L917,663c-.4,1.06-.79,2.08-1.22,3.14-.7,1.78-1.42,3.57-2.15,5.35-1.22,3-2.51,6-3.83,9-.73,1.68-1.49,3.4-2.25,5.08,0,.07-.07.1-.1.17-1.19,2.64-2.41,5.25-3.63,7.83a5.79,5.79,0,0,0-.33.66c-1.39,2.88-2.81,5.72-4.23,8.56-2.88,5.65-5.89,11.27-9,16.75-1.16,2.12-2.35,4.2-3.57,6.28s-2.44,4.2-3.73,6.24c-.93,1.59-1.89,3.14-2.85,4.7-.56,1-1.15,1.91-1.75,2.84-.76,1.22-1.52,2.41-2.31,3.6-.23.33-.43.66-.63,1-2.61,4-5.25,7.83-7.89,11.73a3.81,3.81,0,0,0-.43.62c-2.35,3.38-4.76,6.68-7.21,10L858.8,768c-1,1.26-1.88,2.51-2.87,3.8-.07.1-.17.2-.23.3-3.08,4-6.21,8-9.42,11.86q-1.93,2.33-3.87,4.56c-.29.36-.62.76-.92,1.16s-.63.72-1,1.12q-2.67,3.16-5.45,6.28c-1.19,1.32-2.41,2.64-3.6,4-.5.53-1,1.09-1.42,1.62-.3.3-.53.56-.8.86-.66.73-1.32,1.42-2,2.15-1.59,1.72-3.21,3.4-4.86,5.09a1.48,1.48,0,0,0-.33.33,3.42,3.42,0,0,1-.33.33l-.83.82c-.43.47-.86.93-1.32,1.39a5.57,5.57,0,0,0-.39.43c-.6.6-1.19,1.19-1.76,1.79-.39.39-.76.76-1.15,1.12a9.29,9.29,0,0,1-.86.82c-.53.53-1.06,1.06-1.62,1.56-1.16,1.15-2.31,2.31-3.5,3.47-1.49,1.45-3,2.9-4.56,4.33-1.32,1.25-2.71,2.51-4.07,3.76s-2.77,2.48-4.16,3.74l-.1.1c-.13.13-.26.23-.36.33-2.08,1.91-4.23,3.73-6.45,5.55-.39.36-.79.69-1.22,1h0a2.44,2.44,0,0,1-.3.27c-.06,0-.1.1-.16.16-1.33,1.13-2.68,2.22-4,3.37,0,0-.06,0-.06.07-3.67,3-7.34,6-11.1,8.79-.7.56-1.36,1.09-2.05,1.59-.53.42-1.09.85-1.65,1.25-1.46,1.09-2.91,2.18-4.37,3.24-2.47,1.85-5,3.67-7.46,5.42-.23.16-.47.33-.7.46-1.32.93-2.61,1.82-3.9,2.68-1,.72-2,1.45-3.1,2.14-.5.37-1,.7-1.49,1-.66.49-1.35.95-2.05,1.38s-1.45,1-2.18,1.42l-.39.24-.37.26-.1.1c-1,.69-2.08,1.35-3.17,2a9.8,9.8,0,0,1-1.12.7c-1.13.73-2.28,1.45-3.44,2.15-.63.39-1.25.76-1.85,1.15-1.39.86-2.77,1.69-4.2,2.55l-3.17,1.88c-1,.63-2.08,1.22-3.1,1.82l-3.44,2q-3,1.72-6.11,3.4c-1.09.6-2.22,1.22-3.34,1.82-1.69.89-3.44,1.78-5.12,2.71s-3.31,1.65-4.92,2.48c-.63.29-1.26.62-1.86.92l-3.1,1.52-1.22.6c-1.29.62-2.55,1.22-3.8,1.85-1.06.49-2.12,1-3.21,1.48-1.42.63-2.81,1.29-4.23,1.92-1.15.53-2.31,1.06-3.5,1.55-1.42.66-2.88,1.26-4.33,1.85-.26.13-.56.27-.82.37-.57.26-1.13.52-1.72.76a.14.14,0,0,1-.1,0c-2.48,1.09-5,2.08-7.47,3.07-.07,0-.1,0-.2.07-.26.1-.53.2-.79.33-2.61,1.06-5.22,2.05-7.83,3L655,920s0,0-.07,0-.06,0-.1,0c-.66.26-1.32.49-2,.76l-.36.13c-.7.26-1.39.53-2.12.76-1.75.66-3.5,1.29-5.28,1.91a5.94,5.94,0,0,0-.7.17l-.59.2-.83.3c-.29.09-.56.19-.86.26-1.38.49-2.77,1-4.16,1.39-.63.23-1.29.43-2,.62a8.84,8.84,0,0,1-1,.3c-.33.13-.63.2-1,.33-.72.23-1.45.47-2.18.66l-3.27,1c-1.72.53-3.4,1-5.12,1.52a4.2,4.2,0,0,0-.43.14l-3.17.89c-1.88.53-3.8,1.06-5.72,1.55-.62.17-1.29.33-2,.5-.46.13-.92.26-1.38.36-1.36.36-2.71.73-4.1,1.06h0c-1.66.39-3.28.79-4.89,1.15a3.68,3.68,0,0,1-.63.17c-2.15.5-4.26,1-6.41,1.42-1.49.36-3,.66-4.46,1a.9.9,0,0,1-.27.07,1.51,1.51,0,0,1-.36.06c-1.75.33-3.47.7-5.19,1s-3.44.62-5.15,1c-1.16.24-2.35.43-3.51.63-1,.2-2,.37-3,.53a7.9,7.9,0,0,1-1,.13c-1.59.27-3.17.5-4.76.73l-.23,0c-1.19.2-2.35.37-3.54.53a1.88,1.88,0,0,1-.36.07l-3.83.49c-.56.07-1.09.17-1.65.23s-1.23.17-1.85.24-1.09.13-1.62.16c-.73.13-1.46.23-2.22.33l-.89.1c-.46.07-.89.1-1.35.17-1.49.16-3,.29-4.43.46-.86.1-1.72.16-2.55.26s-1.71.17-2.57.23c-1.72.17-3.44.3-5.12.4a3.35,3.35,0,0,1-.53.07h-.1c-.07,0-.1,0-.13,0l-2,.2a5.27,5.27,0,0,0-.79.07l-.9,0c-.92.07-1.81.13-2.7.17h-.14c-2.21.19-4.42.33-6.64.39h0c-1.55.1-3.07.17-4.63.23-.43,0-.86,0-1.29,0-1.28,0-2.61.06-3.89.06a7.75,7.75,0,0,1-1.52,0c-1.39.06-2.81.09-4.2.09s-2.71,0-4.1,0c-2.64,0-5.32,0-8-.07h-.27c-4-.06-8-.16-12-.36-1.59-.07-3.17-.13-4.76-.23-2.15-.14-4.29-.23-6.44-.37-.66,0-1.29-.1-1.95-.13l-3.8-.3h0q-3.27-.24-6.58-.59c-.53-.07-1-.07-1.35-.13a1,1,0,0,1-.33,0c-3.51-.36-7.08-.76-10.64-1.19-.7-.06-1.36-.16-2-.23a1.51,1.51,0,0,0-.36-.06c-.5-.07-1-.1-1.49-.2l-1.42-.2c-8.89-1.25-17.71-2.71-26.67-4.46-2.44-.5-4.89-1-7.33-1.52-2.05-.46-4.13-.89-6.18-1.35l-.49-.14c-.47-.1-.9-.2-1.36-.33-.13,0-.26,0-.4-.06l-6.14-1.49-6-1.59c-.4-.13-.83-.19-1.23-.29h-.06c-3-.8-5.95-1.62-8.89-2.51l-2.38-.7c-2.18-.63-4.33-1.29-6.47-1.95-1.56-.49-3.14-1-4.7-1.52-.95-.3-1.88-.56-2.77-.89L356.1,924c-.39-.13-.79-.27-1.19-.43-2.84-1-5.65-2-8.46-3-2.24-.82-4.46-1.65-6.67-2.51-1.75-.63-3.44-1.29-5.16-2l-.29-.1c-.86-.33-1.75-.73-2.65-1.09L329,913.78c-1.29-.49-2.61-1-3.9-1.58l-1.85-.79c-1.36-.57-2.71-1.16-4.07-1.76s-2.9-1.28-4.36-1.94l-4.36-2-1.88-.89-.5-.23c-.82-.4-1.68-.83-2.54-1.22L303,902.15l-1.29-.66c-1.25-.62-2.54-1.29-3.8-2s-2.61-1.29-3.86-1.95-2.58-1.35-3.84-2c-2.44-1.29-4.92-2.58-7.33-3.93l-2.48-1.39c-.83-.46-1.65-.93-2.45-1.42l-5.51-3.17c-1.39-.83-2.78-1.66-4.13-2.52-1.56-.92-3.08-1.85-4.6-2.77a4.8,4.8,0,0,0-.76-.46c-1.38-.9-2.8-1.79-4.19-2.71-1.16-.73-2.28-1.46-3.44-2.18l-.49-.3c-.24-.17-.47-.3-.7-.46l-3.2-2.18c-.27-.2-.57-.37-.86-.57-1.29-.89-2.61-1.71-3.9-2.61-.07,0-.13-.1-.2-.13-.63-.46-1.29-.89-1.95-1.35h0c-1.26-.9-2.51-1.85-3.8-2.75-3-2.14-6-4.29-9-6.6-1.15-.83-2.32-1.73-3.5-2.63l-2.44-1.87-2.88-2.28-3.81-3c-1.94-1.58-3.87-3.16-5.79-4.76-2.52-2.08-4.95-4.21-7.42-6.42-.67-.56-1.33-1.15-2-1.73-1-.88-2-1.74-3-2.63s-1.79-1.65-2.68-2.48c-1.49-1.35-3-2.74-4.46-4.13L192,824.93c-1.22-1.18-2.48-2.34-3.7-3.53s-2.41-2.41-3.6-3.6l-1-1c-1.36-1.36-2.68-2.71-4-4.07-1-1-2-2-2.94-3-.2-.24-.4-.43-.6-.67-.82-.85-1.68-1.75-2.48-2.61-.62-.66-1.28-1.32-1.88-2-.3-.3-.59-.59-.86-.89-.13-.13-.23-.26-.36-.4-.73-.86-1.52-1.68-2.25-2.54l-2.67-2.94c-.86-1-1.72-2-2.58-3-2-2.31-4-4.62-5.95-7-3-3.54-6-7.17-8.89-10.84-.13-.13-.26-.33-.39-.46s-.37-.47-.53-.7c-1.62-2.08-3.24-4.19-4.83-6.31l-.36-.46s0-.07-.07-.1c-.66-.86-1.32-1.78-2-2.68s-1.32-1.81-2-2.71c-1.49-2-2.94-4.09-4.4-6.18-2-2.94-4.09-5.88-6.08-8.85-.49-.73-1-1.42-1.45-2.15a3.19,3.19,0,0,1-.2-.33c-.89-1.35-1.78-2.71-2.64-4.06-.63-1-1.26-2-1.85-2.91-1.52-2.45-3-4.92-4.53-7.4-.58-.94-1.15-1.87-1.71-2.81-.44-.75-.89-1.49-1.33-2.25-.33-.56-.63-1.12-.92-1.68s-.66-1.06-1-1.62-.67-1.09-1-1.65c-.66-1.13-1.29-2.25-1.89-3.37-.53-.9-1-1.79-1.48-2.68-.4-.69-.76-1.39-1.16-2s-.83-1.55-1.26-2.31L103.56,708v0c-.36-.7-.69-1.36-1-2.05q-5.85-11.2-11-22.7c-1.13-2.55-2.25-5.12-3.34-7.7-.3-.66-.6-1.32-.89-2-.1-.27-.24-.53-.33-.8-.27-.56-.47-1.09-.7-1.68s-.56-1.42-.86-2.15l-3.17-8-.07-.06q-4-10.41-7.56-21.05c-3.11-9.58-6-19.27-8.43-29.11A395.57,395.57,0,0,1,57.73,570c-.76-4.42-1.38-8.89-1.91-13.38,0-.26-.07-.43-.07-.63-.63-4.52-1.12-9.08-1.52-13.61A446.24,446.24,0,0,1,67.51,384.15c2.18-8.12,4.63-16,7.17-23.92,1-3.14,2.12-6.31,3.21-9.45.89-2.44,1.72-4.92,2.68-7.37.19-.62.46-1.35.72-2v0a10.16,10.16,0,0,1,.5-1.32c.2-.53.43-1.06.63-1.59.66-1.68,1.32-3.37,2-5,.26-.73.56-1.46.86-2.18.69-1.79,1.45-3.54,2.18-5.32.3-.63.56-1.29.82-1.92.14-.36.3-.69.47-1.06.23-.56.49-1.15.76-1.71a.56.56,0,0,0,.06-.2c.17-.37.33-.73.47-1.09.29-.73.62-1.42,1-2.15.07-.2.17-.4.27-.63.39-.92.82-1.85,1.22-2.77.53-1.13,1-2.25,1.55-3.34,1.29-2.74,2.58-5.45,3.9-8.13.07-.1.1-.23.17-.36.56-1.13,1.12-2.25,1.68-3.41.7-1.35,1.39-2.71,2.08-4.06,0-.07,0-.1.07-.13.73-1.42,1.45-2.84,2.21-4.23.53-1,1.06-2,1.62-3,1.29-2.45,2.65-4.86,4-7.27.1-.2.23-.4.33-.56,1.09-2,2.18-3.84,3.31-5.75l.13-.27c1.19-2,2.34-4,3.53-5.94s2.55-4.17,3.84-6.18,2.57-4.1,3.9-6.12a5,5,0,0,0,.33-.52c1.15-1.79,2.34-3.54,3.5-5.29,0-.07.1-.13.13-.2,1.26-1.85,2.51-3.7,3.77-5.48a2,2,0,0,1,.33-.43c2.71-4,5.52-7.87,8.39-11.67,1-1.29,2-2.57,2.94-3.86s1.75-2.32,2.64-3.44c.63-.83,1.29-1.65,1.95-2.48.4-.53.83-1,1.26-1.55s.69-.89,1-1.32c.2-.27.4-.5.6-.73.92-1.19,1.88-2.31,2.87-3.5v0l3.18-3.77c.29-.37.62-.73.92-1.09a6.47,6.47,0,0,1,.5-.56c0-.07.1-.14.13-.2.3-.33.56-.66.89-1,.17-.23.36-.4.53-.6.82-1,1.65-2,2.48-2.91.2-.23.36-.46.56-.66.59-.69,1.19-1.35,1.82-2s1.35-1.52,2-2.28c.34-.37.63-.73,1-1.09.5-.53,1-1.09,1.49-1.62,2.38-2.55,4.72-5.12,7.17-7.6.63-.7,1.29-1.39,1.95-2.05.16-.16.33-.33.49-.46a11.78,11.78,0,0,1,1.06-1.06c.5-.53,1-1.06,1.52-1.59l.27-.26c.29-.3.59-.63.89-.93s.89-.89,1.35-1.32c1.16-1.15,2.35-2.31,3.54-3.43.66-.66,1.29-1.29,1.95-1.92a0,0,0,0,0,0,0c.7-.63,1.36-1.26,2-1.89a0,0,0,0,1,0,0c.66-.63,1.32-1.25,2-1.85a7.68,7.68,0,0,1,.6-.56,2.19,2.19,0,0,1,.43-.43c2.21-2.08,4.42-4.1,6.7-6.08.17-.17.37-.3.57-.5A3.57,3.57,0,0,1,203,165c2.11-1.88,4.26-3.73,6.44-5.58,1.75-1.52,3.53-3,5.35-4.5.17-.16.33-.29.5-.43.36-.33.72-.62,1.09-.92.69-.56,1.35-1.13,2-1.69l1.12-.86a0,0,0,0,1,0,0h0c2.94-2.41,5.84-4.63,8.78-6.91,1.46-1.12,3-2.24,4.43-3.33s3-2.22,4.53-3.27c.86-.66,1.75-1.29,2.61-1.92.63-.46,1.26-.89,1.92-1.32,1.52-1.09,3-2.15,4.56-3.21,3.07-2.11,6.14-4.16,9.25-6.18a0,0,0,0,1,0,0l.93-.59,1.25-.8,6.05-3.8.2-.13,1-.63c.93-.56,1.82-1.12,2.75-1.65,1.45-.89,2.94-1.78,4.42-2.64,2-1.19,4-2.35,6-3.47.42-.27.82-.5,1.25-.73,1.62-.92,3.27-1.82,4.92-2.74s3.24-1.78,4.86-2.64l4.86-2.58s0-.07.06-.07c3.28-1.68,6.58-3.33,9.92-4.92,1.65-.83,3.33-1.62,5-2.41,0,0,0,0,0,0v0l5-2.34c1.19-.53,2.35-1.06,3.54-1.55l1.58-.7c1.69-.76,3.41-1.49,5.12-2.21,2.88-1.26,5.82-2.48,8.76-3.64l1.55-.66c4.2-1.65,8.4-3.27,12.63-4.79,1.81-.66,3.63-1.32,5.45-1.92.92-.36,1.88-.69,2.84-1,1.75-.63,3.5-1.22,5.29-1.75.89-.33,1.78-.6,2.67-.86,2.48-.83,5-1.62,7.5-2.35,0,0,0,0,.07,0,.46-.13,1-.3,1.45-.43,1.16-.36,2.32-.69,3.47-1.06,5.69-1.65,11.37-3.17,17.12-4.56,1.82-.46,3.63-.89,5.45-1.28s3.63-.86,5.49-1.26C406.56,62,409,61.5,411.48,61l3.17-.59c.13,0,.23,0,.37-.07,1.88-.36,3.76-.72,5.68-1.05,2.64-.53,5.35-1,8-1.36l1.16-.2,1.09-.2c.36-.06.69-.09,1-.16a10,10,0,0,1,1.13-.13c.33-.07.66-.1,1-.17s.63-.1,1-.13c1.85-.3,3.73-.53,5.55-.79.13,0,.23,0,.36-.07l.66-.1c.43,0,.89-.1,1.32-.16.83-.07,1.65-.17,2.48-.27.66-.06,1.29-.16,1.92-.26s1.32-.17,2-.23,1.29-.17,1.95-.23c.19,0,.43,0,.66-.07l1.29-.1a3.09,3.09,0,0,1,.52-.07.14.14,0,0,1,.1,0,2.13,2.13,0,0,1,.37-.07,3.51,3.51,0,0,1,.56,0c.82-.06,1.68-.13,2.51-.23,1.82-.16,3.67-.36,5.48-.49.6-.07,1.16-.14,1.76-.17h.1a8.66,8.66,0,0,1,.89-.07,4.43,4.43,0,0,1,.63,0l5.74-.4c.17,0,.33,0,.5,0,.59-.07,1.19-.1,1.78-.13s1.39-.1,2.09-.1h.09a3,3,0,0,1,.53,0l2.18-.1c1.16-.07,2.35-.13,3.51-.17h0c.17,0,.23,0,.36,0,.7,0,1.39,0,2.08-.07l3.24-.06a10,10,0,0,1,1.09,0c.76,0,1.59,0,2.38-.06H492c.86,0,1.68,0,2.51,0,1.75,0,3.47,0,5.19,0h.09c2.38,0,4.76,0,7.14.07l4.69.1a2.8,2.8,0,0,1,.5,0c.66,0,1.32,0,2,.07s1.55,0,2.35.06h.13c1.59,0,3.17.13,4.76.2s3.34.17,5,.3c.76,0,1.52.06,2.28.13.43,0,.82,0,1.25.07,2,.13,4,.26,6,.46,2.41.16,4.86.4,7.27.63,4.86.43,9.71,1,14.51,1.65q14.11,1.83,28.21,4.59c.6.17,1.23.27,1.85.4,4.56.89,9.09,1.85,13.65,2.94,4.39,1,8.89,2.11,13.28,3.34.43.06.83.19,1.29.29l5.62,1.59h0c1.88.53,3.74,1.09,5.62,1.62,3.77,1.09,7.47,2.25,11.17,3.47,1.88.63,3.73,1.22,5.55,1.85s3.67,1.22,5.48,1.88,3.64,1.29,5.42,2c.83.3,1.65.6,2.48.93,1.72.63,3.44,1.29,5.12,2l4.3,1.68c1.42.6,2.87,1.16,4.29,1.76.53.19,1.09.42,1.65.66l1,.39c.89.37,1.79.76,2.68,1.16,1.75.73,3.5,1.49,5.25,2.25a2.71,2.71,0,0,1,.66.29l.23.1c1.62.7,3.18,1.42,4.76,2.15l4.73,2.18c1.15.6,2.34,1.16,3.5,1.72l1.65.79,5.06,2.55c.86.43,1.72.82,2.54,1.28,2,1,4,2.05,6,3.11.53.27,1,.53,1.55.79s1,.53,1.46.83c.76.4,1.52.79,2.28,1.22s1.52.83,2.24,1.26l3.18,1.78c1.88,1.06,3.76,2.15,5.61,3.24h0c2.57,1.51,5.09,3.09,7.62,4.65,2.25,1.39,4.49,2.78,6.68,4.17l.65.42,1.25.82c2.32,1.49,4.64,3,6.92,4.55a4.76,4.76,0,0,1,.6.36h0s.1.1.17.13.1,0,.13.07c2.38,1.62,4.79,3.23,7.17,5,.56.39,1.09.79,1.65,1.19h0c4.52,3.23,9,6.57,13.38,9.94h0c2.18,1.69,4.36,3.4,6.51,5.16s4.29,3.47,6.44,5.25c5.62,4.72,11.2,9.58,16.62,14.57,2.51,2.31,5,4.63,7.4,7s4.89,4.73,7.27,7.14a3,3,0,0,1,.4.4c.56.49,1.06,1,1.59,1.55s1.12,1.16,1.65,1.72L823,190c.36.36.73.72,1.06,1.12,1.22,1.26,2.41,2.51,3.6,3.8l.72.79c.4.43.76.86,1.16,1.29,1.26,1.39,2.54,2.78,3.77,4.2l1.88,2.08c.53.53,1,1.09,1.52,1.65l.69.83c.9,1,1.76,2,2.61,3,.43.49.86,1,1.29,1.52l.6.72c1.15,1.36,2.31,2.75,3.43,4.14.14.16.27.33.4.49.76.93,1.49,1.82,2.22,2.74.56.66,1.09,1.32,1.65,2,1.75,2.18,3.47,4.36,5.18,6.57v0s0,0,0,0a.62.62,0,0,1,.23.26s.07,0,.07.07c.46.66,1,1.29,1.42,1.92,2.24,2.94,4.39,5.85,6.54,8.82.49.69,1,1.39,1.49,2,.59.86,1.22,1.72,1.81,2.58.4.56.8,1.12,1.16,1.68.16.23.33.46.49.73,1.49,2.14,3,4.29,4.37,6.47.49.7,1,1.42,1.42,2.12.82,1.22,1.62,2.44,2.41,3.7,1.19,1.82,2.35,3.67,3.5,5.52s2.25,3.63,3.34,5.48,2.21,3.71,3.28,5.56l.68,1.18a9.62,9.62,0,0,1,.57.93.25.25,0,0,1,.06.13c.2.26.33.53.5.79a.13.13,0,0,1,0,.07c1,1.55,1.82,3.1,2.68,4.69.53.89,1,1.82,1.48,2.71,1.59,2.87,3.14,5.65,4.56,8.53a8.07,8.07,0,0,1,.43.82c0,.07.07.17.1.23.3.56.6,1.13.93,1.69a.26.26,0,0,0,.06.16c.3.63.63,1.26.93,1.89.86,1.68,1.72,3.33,2.54,5.05.17.3.3.63.47.93l3,6.21c1.12,2.41,2.21,4.79,3.3,7.2.86,1.92,1.69,3.83,2.51,5.78.24.5.43,1,.63,1.49.17.33.3.73.46,1.06,0,0,0,0,0,.06.72,1.76,1.45,3.51,2.21,5.29,1.12,2.74,2.22,5.49,3.24,8.23v.06c1.59,4.1,3.14,8.2,4.63,12.36s2.8,8.06,4.09,12.16a2.58,2.58,0,0,1,.23.63q1.93,6.15,3.7,12.29c1,3.34,1.89,6.58,2.71,9.91.27,1,.53,1.85.76,2.81s.53,2.12.76,3.17c.93,3.41,1.69,6.81,2.45,10.25,1,4.56,2,9.05,2.81,13.58.69,3.43,1.29,6.84,1.85,10.27.13.73.26,1.36.33,2.09.4,2.14.69,4.26,1,6.44.26,1.35.43,2.68.62,4,.34,2.38.63,4.72.9,7.1q1.63,13.25,2.44,26.6.4,6.45.56,12.86c.2,4.65.27,9.35.27,14.07A449.89,449.89,0,0,1,932.49,615.85Z"/></svg>