<svg xmlns="http://www.w3.org/2000/svg" viewBox="0 0 988.11 988"><defs><style>.cls-1{fill:#282828;}.cls-2{fill:#fff;}.cls-3{fill:#edae49;}</style></defs><title>Logo_1Iris</title><g id="Camada_2" data-name="Camada 2"><g id="Iris"><circle class="cls-1" cx="493.91" cy="496.39" r="151.51"/><circle class="cls-2" cx="560.09" cy="478.46" r="47.51"/><path class="cls-3" d="M907,655.36A440.82,440.82,0,0,1,788.16,825.71c-107.7,95.35-259.56,136.44-408.87,96.51a443.66,443.66,0,0,1-298.91-269c121.43,72.46,263.38,114.07,415.07,114.07A808,808,0,0,0,907,655.36Z"/><path class="cls-3" d="M907.68,334.77A812.56,812.56,0,0,0,79.51,337a434.51,434.51,0,0,1,28.17-60.34,440.65,440.65,0,0,1,67.82-90.94C283.83,74,447.8,22.7,608.77,65.82A441.84,441.84,0,0,1,881.07,278,436.21,436.21,0,0,1,907.68,334.77Z"/><path class="cls-1" d="M987.92,481c-.06-3.67-.19-7.28-.38-10.95-.06-1.27-.13-2.54-.19-3.8-.19-3.49-.44-7-.7-10.39q-.46-6.27-1.14-12.54c-.44-4.18-.88-8.3-1.45-12.41-.38-3.23-.83-6.53-1.33-9.76-.13-.88-.26-1.77-.45-2.66-.5-3.48-1.07-6.9-1.71-10.38-.31-1.84-.63-3.61-1-5.38q-.76-4.38-1.71-8.74c-.06-.13-.06-.32-.13-.45-1-4.81-2.09-9.56-3.16-14.31,0-.13-.07-.25-.07-.38-1.14-4.62-2.28-9.18-3.54-13.68-1.27-4.69-2.6-9.37-4-14s-2.85-9.24-4.44-13.8q-4.56-13.79-10-27.17c-1.78-4.44-3.61-8.93-5.58-13.3S943,288,941,283.67c-1.9-4.05-3.86-8-5.83-12a6.21,6.21,0,0,1-.5-.95c-1.78-3.42-3.55-6.84-5.39-10.26-.82-1.52-1.58-3-2.4-4.43-2-3.55-4-7.1-6-10.64l-1.33-2.28c-2-3.42-4-6.78-6.14-10.07-2.22-3.61-4.5-7.16-6.78-10.64-.38-.51-.7-1-1-1.52-2.66-4.06-5.39-8-8.17-11.91v-.06c-2.6-3.61-5.2-7.22-7.86-10.77-.63-.82-1.2-1.64-1.77-2.4-5.45-7.16-11.08-14.25-16.91-21.09-3.1-3.68-6.27-7.35-9.5-10.9s-6.52-7.15-9.88-10.7c-.25-.25-.5-.51-.76-.82q-8.55-8.83-17.48-17.36c-2-1.9-4-3.73-6-5.57-2.41-2.22-4.75-4.37-7.22-6.46-3.36-3-6.84-6-10.33-8.87-2.91-2.4-5.82-4.81-8.8-7.09-1.71-1.39-3.42-2.72-5.19-4-6.53-5.13-13.24-10-20.08-14.7-1.77-1.26-3.55-2.47-5.38-3.67-2.79-2-5.58-3.8-8.43-5.57-2.34-1.52-4.68-3-7.09-4.5C743,67,730.73,60.17,718.19,53.78c-5.07-2.54-10.14-5-15.27-7.41a500,500,0,0,0-81-29.39A494.28,494.28,0,0,0,479.49.2c-9.44.32-18.87.82-28.25,1.65s-18.68,1.9-27.93,3.23c-4.62.69-9.24,1.45-13.87,2.21-4.24.76-8.48,1.59-12.73,2.41a7.84,7.84,0,0,0-1.77.38c-8.87,1.84-17.67,3.86-26.41,6.2C364,17.42,359.6,18.69,355.1,20A494.6,494.6,0,0,0,229.39,77q-5.89,3.7-11.59,7.6c-7.54,5.07-14.88,10.32-22.1,15.77a4.61,4.61,0,0,0-.7.51c-3.61,2.78-7.16,5.51-10.64,8.36-10.58,8.48-20.84,17.41-30.65,26.72a3.57,3.57,0,0,0-.7.7c-3.36,3.17-6.65,6.46-9.94,9.75-3.87,3.8-7.6,7.73-11.21,11.66-2.66,2.85-5.26,5.76-7.86,8.67-3,3.36-6,6.78-8.8,10.2-2.66,3.1-5.26,6.33-7.79,9.56-.51.57-1,1.14-1.39,1.71-1.77,2.28-3.61,4.56-5.32,6.91q-8.55,11.1-16.34,22.79c-1.2,1.78-2.41,3.55-3.55,5.32C79,226.1,77.08,229,75.3,231.93c-2,3.1-3.86,6.21-5.7,9.37-1.26,2-2.47,4.06-3.61,6.15-2,3.48-4,7-5.89,10.57-2,3.68-4,7.41-6,11.21a3.74,3.74,0,0,1-.25.45c-2.09,4.11-4.18,8.36-6.15,12.6-.19.38-.38.82-.57,1.2-2,4.12-3.8,8.3-5.63,12.48-2,4.5-3.87,9.06-5.7,13.62q-2.39,5.79-4.56,11.78c-.57,1.45-1.08,2.85-1.59,4.3-1.39,3.87-2.78,7.79-4.05,11.72-1.46,4.31-2.85,8.68-4.18,13.05-1.58,5.19-3.1,10.45-4.5,15.7-.88,3.49-1.83,7-2.66,10.52a2.78,2.78,0,0,0-.12.69c-.38,1.27-.7,2.6-1,3.87-.5,2.15-1,4.24-1.39,6.39s-.95,4.12-1.33,6.14c-.95,4.44-1.84,8.94-2.6,13.37-.5,2.78-1,5.51-1.39,8.29s-.89,5.26-1.27,7.92c-.63,4.12-1.14,8.23-1.64,12.35-.45,3.61-.83,7.16-1.14,10.77-.26,1.77-.38,3.54-.57,5.32C.63,466,0,480.26,0,494.38c0,8,.19,16,.57,24,.06,1.14.13,2.28.19,3.42.19,3.42.44,6.84.7,10.33.38,4.18.76,8.36,1.14,12.47q1.32,12.54,3.23,24.89,1,6.18,2.09,12.35c.76,4.06,1.58,8.17,2.4,12.22,1,4.94,2.16,9.88,3.3,14.76A495.2,495.2,0,0,0,60.23,730.1a1.83,1.83,0,0,0,.32.64C65.11,739,69.79,747.08,74.73,755c5.13,8.17,10.45,16.22,16,24.07,0,0-.06.06,0,.06,2.6,3.61,5.2,7.22,7.85,10.77.58.82,1.14,1.58,1.78,2.4q8.16,10.74,16.91,21.09c3.1,3.68,6.27,7.35,9.5,10.9s6.52,7.15,9.88,10.7c.25.25.5.57.76.82q8.55,8.84,17.48,17.36c2,1.83,3.92,3.73,6,5.57,2.41,2.22,4.75,4.37,7.22,6.46,3.36,3,6.84,5.95,10.33,8.87,2.85,2.4,5.82,4.75,8.8,7.09,1.71,1.39,3.42,2.72,5.19,4.05,6.53,5.07,13.18,9.95,20.08,14.7,1.77,1.26,3.55,2.47,5.38,3.67,2.79,1.9,5.58,3.74,8.43,5.57,2.34,1.52,4.68,3,7.09,4.5,11.78,7.35,24,14.25,36.54,20.58,5,2.6,10.07,5.07,15.27,7.41a499.64,499.64,0,0,0,81,29.39A494.28,494.28,0,0,0,508.62,987.8c9.44-.25,18.87-.76,28.25-1.65s18.74-1.83,28-3.23c4.62-.69,9.25-1.45,13.81-2.21s9.12-1.65,13.61-2.6c.13,0,.19-.06.26,0,4.56-1,9.05-2,13.55-3A478.42,478.42,0,0,0,698,943.85c4-1.84,7.92-3.67,11.85-5.57.63-.32,1.26-.64,2-.95,3.74-1.84,7.41-3.74,11.08-5.64,4.06-2.15,8.17-4.31,12.16-6.59s8.05-4.56,12-6.9,7.92-4.75,11.78-7.22,7.79-5,11.59-7.6,7.6-5.19,11.4-7.92c3.3-2.34,6.59-4.81,9.88-7.28.57-.38,1.14-.82,1.78-1.33,3.48-2.66,7-5.32,10.38-8.11.51-.44,1-.82,1.52-1.2,9.69-7.85,19.13-16.09,28.19-24.7,6.58-6.14,13-12.54,19.19-19.13,2.28-2.34,4.49-4.75,6.71-7.22,4.24-4.62,8.42-9.31,12.35-14.12,1.9-2.15,3.73-4.37,5.51-6.59,1.14-1.39,2.28-2.78,3.35-4.18,2.73-3.35,5.32-6.77,7.92-10.19,2.79-3.68,5.57-7.41,8.23-11.21,3.36-4.69,6.65-9.44,9.76-14.31,2-2.92,3.86-5.83,5.63-8.74a31.16,31.16,0,0,0,1.9-3.11c1.59-2.4,3.11-4.87,4.5-7.34,1.27-2,2.47-4.06,3.61-6.15,2-3.48,4-7,5.89-10.57s4-7.41,5.95-11.21a4.05,4.05,0,0,1,.26-.45c2.09-4.11,4.11-8.36,6.14-12.6.19-.38.38-.82.57-1.2,1.9-4.12,3.8-8.3,5.64-12.48s3.67-8.61,5.44-13c.32-.76.64-1.52.95-2.35,1.21-3.16,2.47-6.33,3.61-9.56,1.52-3.93,3-8,4.31-12,.76-2.16,1.52-4.31,2.22-6.53,1.14-3.35,2.21-6.71,3.23-10.13,1.64-5.51,3.23-11.08,4.75-16.66.12-.57.31-1.07.44-1.64.82-2.92,1.52-5.89,2.22-8.81.88-3.67,1.77-7.28,2.53-11,.51-2,.95-4.06,1.33-6,.63-3,1.2-5.89,1.77-8.86.32-1.52.57-3,.83-4.56.69-3.87,1.39-7.79,2-11.72.19-.89.32-1.77.44-2.72q1.05-7.12,1.9-14.25c.45-3.36.83-6.72,1.08-10.07.25-2.09.44-4.18.63-6.27,1.27-14.13,1.84-28.25,1.84-42.31C988.11,489.38,988.05,485.2,987.92,481ZM922.24,608.69c-2,7.35-4.11,14.57-6.39,21.66-1,3.17-2.09,6.34-3.17,9.44-.13.38-.32.82-.44,1.27-1,2.66-1.9,5.32-2.92,8-.19.63-.44,1.33-.69,2-.19.44-.32.89-.51,1.33l-1.14,3-.06.06c-1.59,4.12-3.23,8.24-4.94,12.23-1.46,3.35-2.92,6.71-4.44,10.07q-7.87,17.28-17.1,33.63c-2.28,4.18-4.68,8.29-7.22,12.41s-4.87,8-7.47,12c-2.72,4.12-5.44,8.17-8.23,12.22-2.66,3.87-5.45,7.6-8.23,11.34s-5.7,7.54-8.68,11.21c-2.47,3.1-4.94,6.14-7.54,9.12-1.2,1.52-2.47,3-3.8,4.49-2.28,2.66-4.62,5.33-7,7.92-2.91,3.29-6,6.46-9,9.63a6.24,6.24,0,0,0-.63.63l-.83.82q-3.42,3.61-7,7c-5.25,5.26-10.64,10.26-16.15,15.14a2.29,2.29,0,0,1-.44.44c-2.47,2.22-5,4.37-7.6,6.53a1.48,1.48,0,0,0-.32.25c-5.63,4.81-11.33,9.44-17.22,13.87s-11.85,8.8-17.93,12.92q-4.27,3-8.74,5.89a4,4,0,0,0-.82.57c-2.53,1.65-5.07,3.23-7.66,4.81-.64.38-1.27.76-1.84,1.14-6.08,3.74-12.22,7.35-18.43,10.71-6.46,3.61-13,7-19.57,10.13-3.29,1.65-6.65,3.23-10,4.75s-6.71,3-10.07,4.43-6.77,2.92-10.19,4.25-6.84,2.72-10.32,3.92c-3.23,1.27-6.46,2.41-9.76,3.55-.44.13-.88.25-1.26.38C633.26,915,630,916,626.8,917a446.48,446.48,0,0,1-43.57,11.33c-3.55.7-7,1.4-10.58,2s-6.78,1.2-10.2,1.71c-.76.13-1.45.25-2.15.32-2.53.44-5.13.76-7.66,1.07-1.65.26-3.36.51-5.07.64-2.91.44-5.89.76-8.8,1-3.36.38-6.78.7-10.14.89a1.63,1.63,0,0,1-.76.06c-2.09.19-4.24.38-6.33.44s-4.5.32-6.71.38c-3.42.19-6.78.32-10.2.38s-6.84.13-10.32.13c-4.75,0-9.44-.06-14.19-.25h-.06c-4.75-.13-9.5-.38-14.31-.7-4.56-.25-9.12-.63-13.75-1.08-.5-.06-.95-.06-1.33-.12-4.24-.45-8.55-1-12.85-1.46-.64-.13-1.27-.19-1.84-.25-9.25-1.27-18.49-2.79-27.8-4.63-4.5-.88-8.93-1.83-13.37-2.85-.76-.19-1.52-.38-2.21-.5-4.06-.95-8.05-2-12-3-.38-.13-.82-.19-1.2-.32h-.06c-3.74-1-7.48-2-11.15-3.17s-7.41-2.21-11.08-3.42c-7.35-2.34-14.57-4.87-21.66-7.66-3.61-1.33-7.1-2.72-10.64-4.24s-7-2.85-10.45-4.44l-.89-.38c-3.1-1.39-6.27-2.78-9.37-4.3-3.36-1.59-6.78-3.23-10.14-5s-6.65-3.35-9.94-5.13-6.58-3.54-9.81-5.44-6.4-3.68-9.57-5.64-6.33-3.86-9.43-5.89c-2.6-1.58-5.2-3.29-7.73-5.07-1-.63-2-1.26-3-2-2.59-1.71-5.13-3.55-7.66-5.38-3-2.09-6-4.25-8.87-6.53-2.91-2.09-5.82-4.37-8.74-6.71-3.16-2.47-6.33-5-9.37-7.6-2.53-2.09-5-4.24-7.47-6.46s-5.13-4.43-7.6-6.78c-6.15-5.57-12.16-11.4-17.86-17.35-2-2-4.06-4.12-6-6.21-1.83-1.9-3.61-3.8-5.32-5.76s-3.48-3.86-5.19-5.89c-2-2.28-4-4.56-5.89-6.9q-12.34-14.54-23.18-30.15c-2.53-3.61-5-7.22-7.47-10.89-3.11-4.81-6.21-9.63-9.12-14.57-1.4-2.21-2.73-4.43-3.93-6.65s-2.6-4.37-3.8-6.58c-.51-.89-1-1.78-1.46-2.66-1.77-3.17-3.48-6.27-5.06-9.5-5.13-9.82-9.88-19.89-14.19-30.09-.95-2.09-1.83-4.18-2.66-6.33-1.07-2.72-2.15-5.45-3.23-8.17l-.06-.06c-2.66-6.84-5.13-13.81-7.47-20.84-3.11-9.5-6-19.06-8.36-28.82a389.67,389.67,0,0,1-8.36-40.27c-.76-4.37-1.4-8.81-1.9-13.24,0-.25-.07-.44-.07-.63q-.95-6.75-1.52-13.49A441,441,0,0,1,65.87,379.31c2.15-8.05,4.56-15.9,7.09-23.69,1-3.1,2.09-6.27,3.17-9.37.88-2.41,1.71-4.88,2.66-7.29.19-.63.44-1.33.69-2a12.08,12.08,0,0,1,.51-1.33c.38-1.08.82-2.09,1.2-3.1q2.19-5.61,4.56-11.21c.57-1.46,1.21-2.92,1.84-4.31,1-2.28,2-4.5,3-6.78,2.34-5.13,4.74-10.13,7.21-15.07,1.4-2.79,2.86-5.57,4.31-8.36,1.9-3.61,3.86-7.22,5.89-10.77,2.28-4,4.56-7.91,6.9-11.84,2.54-4.12,5.07-8.17,7.67-12.16s5.06-7.66,7.66-11.4q9-13,18.94-25.21c2.21-2.78,4.56-5.57,6.9-8.29.63-.76,1.27-1.58,2-2.34q3.31-4,6.84-7.79c.76-.89,1.58-1.78,2.4-2.66,2.35-2.54,4.69-5.07,7.1-7.54,1.14-1.2,2.28-2.41,3.48-3.55,1.77-1.83,3.55-3.61,5.38-5.38l.19-.19c2.6-2.53,5.2-5.07,7.86-7.54s5.44-5.06,8.23-7.47c5.13-4.56,10.39-9,15.71-13.36a12.64,12.64,0,0,1,1.14-.89c2.91-2.34,5.82-4.56,8.74-6.84Q233.88,135,243,128.7c3-2.09,6.08-4.12,9.18-6.14l9.31-5.89c6.27-3.87,12.6-7.54,19.06-11.09,3.23-1.77,6.46-3.48,9.69-5.19a.06.06,0,0,1,.07-.06c6.52-3.36,13.1-6.59,19.75-9.63,3.36-1.52,6.72-3,10.14-4.43S327,83.42,330.4,82c6.84-2.72,13.75-5.25,20.71-7.66,3.49-1.2,7-2.34,10.52-3.42,3.23-1,6.46-2,9.75-3q17.3-5,35-8.61l9.12-1.71c3.36-.63,6.78-1.2,10.2-1.71.7-.13,1.39-.25,2.15-.32,2.6-.44,5.2-.76,7.79-1.14,1.46-.19,3-.38,4.44-.5,2.53-.38,5.06-.7,7.66-.89a6.09,6.09,0,0,1,1.52-.19c3.23-.32,6.46-.63,9.69-.89a14.18,14.18,0,0,1,1.58-.12l5.7-.38c2.35-.19,4.69-.32,7.1-.38,3.35-.19,6.77-.32,10.19-.38s6.84-.13,10.26-.13c4.75,0,9.5.06,14.25.25s9.56.38,14.38.7,9.56.7,14.31,1.14,9.63,1,14.38,1.65q14,1.8,27.93,4.56l1.83.38c4.5.88,9,1.83,13.49,2.91s8.81,2.09,13.18,3.29a9.7,9.7,0,0,1,1.26.32c3.74,1,7.48,2.09,11.15,3.17s7.41,2.21,11.08,3.42q11,3.6,21.66,7.66c3.61,1.39,7.1,2.79,10.64,4.24s7,2.92,10.45,4.44a4.86,4.86,0,0,1,.89.38c3.17,1.39,6.27,2.85,9.37,4.3,3.42,1.65,6.78,3.3,10.13,5s6.65,3.42,10,5.13,6.52,3.61,9.81,5.44,6.4,3.74,9.57,5.64,6.33,3.93,9.43,5.89,6.21,4,9.31,6.08c.07,0,.19.13.32.19,2.91,2,5.89,4,8.74,6.14q13.49,9.6,26.16,20.14c5.57,4.69,11.08,9.5,16.46,14.44,4.94,4.56,9.76,9.19,14.51,13.94.69.63,1.33,1.26,2,2,4.69,4.81,9.25,9.69,13.68,14.69,2.72,3,5.38,5.95,7.92,9.06,2.21,2.59,4.43,5.32,6.58,8s4.56,5.63,6.78,8.55a1.58,1.58,0,0,1,.32.38c2,2.72,4.11,5.51,6.14,8.29,1.71,2.28,3.36,4.56,5,6.91q8.74,12.43,16.53,25.46c1.33,2.21,2.66,4.43,3.93,6.65,1.9,3,3.61,6.14,5.25,9.24s3.49,6.27,5.07,9.5c5.13,9.82,9.88,19.89,14.19,30.09.88,2.09,1.77,4.18,2.66,6.33,1.14,2.72,2.21,5.45,3.23,8.17v.06c1.58,4.06,3.1,8.11,4.56,12.23s2.78,8,4,12a1.77,1.77,0,0,1,.25.63c1.27,4.06,2.47,8.11,3.68,12.16.95,3.3,1.83,6.53,2.66,9.82.25,1,.5,1.84.76,2.79s.5,2.09.76,3.16c.88,3.36,1.64,6.72,2.4,10.13,1,4.5,2,8.93,2.79,13.43.7,3.42,1.27,6.78,1.84,10.2.12.69.25,1.33.31,2,.38,2.16.7,4.25,1,6.4.26,1.33.45,2.66.64,4,.31,2.34.63,4.69.88,7,1.08,8.74,1.9,17.54,2.41,26.35q.38,6.36.57,12.73c.19,4.62.25,9.24.25,13.93A444.37,444.37,0,0,1,922.24,608.69Z"/></g></g></svg>