<svg id="Iris" xmlns="http://www.w3.org/2000/svg" viewBox="0 0 1000 1000"><defs><style>.cls-1{fill:#fff;}.cls-2{fill:#282828;}.cls-3{fill:#612de0;}</style></defs><title>PurpleIrisLogoDefault</title><path class="cls-1" d="M999,499.64c0,14.17-.59,28.45-1.85,42.72-.2,2.08-.4,4.2-.66,6.31-.23,3.4-.63,6.77-1.06,10.18-.59,4.79-1.25,9.58-1.92,14.37-.16,1-.26,1.88-.46,2.78-.59,4-1.29,7.93-2,11.83-.26,1.52-.53,3.07-.83,4.59-.59,3-1.15,6-1.81,9-.37,2-.83,4-1.33,6.08-.76,3.66-1.65,7.33-2.57,11-.7,2.94-1.39,6-2.25,8.89-.1.59-.3,1.09-.43,1.69-1.55,5.61-3.14,11.23-4.79,16.81q-1.53,5.16-3.27,10.21c-.69,2.25-1.49,4.43-2.25,6.61-1.32,4.1-2.81,8.2-4.33,12.16-1.15,3.27-2.44,6.44-3.63,9.65-.33.83-.66,1.62-1,2.38-1.79,4.39-3.57,8.75-5.49,13.12-1.85,4.19-3.76,8.42-5.68,12.59-.2.39-.4.82-.6,1.22-2,4.26-4.09,8.56-6.21,12.72a3.18,3.18,0,0,0-.23.43c-2,3.86-4,7.63-6,11.33s-3.9,7.17-6,10.67c-1.13,2.12-2.35,4.17-3.64,6.22-1.38,2.51-2.94,5-4.52,7.43-.57,1.09-1.23,2.08-1.92,3.14-1.82,2.94-3.73,5.85-5.72,8.82-3.1,4.93-6.44,9.72-9.84,14.44-2.68,3.83-5.49,7.63-8.3,11.33-2.64,3.44-5.25,6.91-8,10.28-1.09,1.42-2.25,2.84-3.41,4.23-1.78,2.25-3.63,4.49-5.55,6.67-4,4.86-8.19,9.59-12.49,14.28-2.24,2.48-4.46,4.92-6.77,7.27-6.28,6.64-12.75,13.12-19.4,19.33-9.15,8.69-18.67,17-28.45,24.94-.49.37-1,.76-1.55,1.19-3.43,2.85-6.94,5.52-10.47,8.23-.63.5-1.23.93-1.79,1.32-3.33,2.51-6.64,5-10,7.34-3.83,2.77-7.63,5.38-11.53,8s-7.73,5.18-11.69,7.66-7.87,4.93-11.9,7.31-8,4.72-12.09,6.93-8.2,4.5-12.29,6.68c-3.71,1.92-7.41,3.83-11.17,5.68-.73.33-1.36.63-2,1-4,1.92-7.9,3.8-12,5.65a481.76,481.76,0,0,1-92.81,31.52c-4.53,1.09-9.06,2.12-13.68,3.08,0-.07-.14,0-.23,0-4.56.95-9.16,1.78-13.78,2.61s-9.26,1.55-14,2.24c-9.31,1.42-18.8,2.51-28.25,3.27s-19,1.42-28.55,1.66a503.48,503.48,0,0,1-225.64-46.63c-5.25-2.38-10.38-4.85-15.43-7.5-12.66-6.37-25-13.35-36.91-20.78-2.44-1.45-4.79-3-7.17-4.53-2.87-1.88-5.68-3.7-8.52-5.61-1.82-1.26-3.64-2.45-5.42-3.74-7-4.79-13.68-9.71-20.29-14.83-1.78-1.36-3.5-2.68-5.22-4.1-3-2.38-6-4.73-8.89-7.17-3.53-2.94-7.07-6-10.44-9-2.48-2.11-4.86-4.29-7.3-6.51-2.12-1.85-4.07-3.76-6.05-5.65-6-5.74-11.89-11.56-17.68-17.51-.26-.26-.53-.56-.76-.82-3.4-3.57-6.7-7.17-10-10.81s-6.47-7.3-9.58-11q-8.86-10.46-17.08-21.31c-.66-.83-1.22-1.59-1.82-2.45-2.67-3.57-5.28-7.23-7.93-10.87,0,0,0-.07,0-.07Q84.27,776,76.5,763.61c-5-8-9.75-16.19-14.34-24.49a2.55,2.55,0,0,1-.33-.66A500,500,0,0,1,14.75,616c-1.13-4.93-2.28-9.92-3.31-14.9-.82-4.1-1.68-8.27-2.44-12.36s-1.42-8.33-2.12-12.49c-1.25-8.3-2.34-16.69-3.24-25.11-.39-4.17-.79-8.4-1.15-12.63-.27-3.5-.53-6.93-.73-10.4,0-1.16-.1-2.32-.17-3.47-.39-8-.59-16.1-.59-24.26,0-14.24.66-28.64,1.85-43,.2-1.78.33-3.6.6-5.38.29-3.64.69-7.24,1.12-10.87.53-4.17,1.06-8.33,1.68-12.49.4-2.68.76-5.29,1.29-8,.37-2.84.89-5.58,1.39-8.39.79-4.49,1.69-9,2.64-13.48.37-2.08.83-4.16,1.33-6.25s.89-4.26,1.42-6.44c.33-1.29.62-2.61,1-3.9a2.56,2.56,0,0,1,.13-.69c.83-3.54,1.79-7.11,2.68-10.64,1.39-5.29,2.94-10.61,4.56-15.83,1.32-4.43,2.74-8.85,4.19-13.21,1.29-3.94,2.71-7.9,4.1-11.83.53-1.46,1-2.88,1.59-4.33,1.49-4,3-8,4.62-11.9Q40,306.81,43,300c1.85-4.19,3.7-8.42,5.69-12.59.19-.39.39-.82.59-1.22,2-4.26,4.1-8.56,6.21-12.72a2.68,2.68,0,0,1,.27-.43c2-3.86,3.93-7.63,6-11.33,1.85-3.6,3.9-7.17,6-10.67,1.15-2.12,2.37-4.17,3.66-6.22,1.85-3.2,3.77-6.34,5.75-9.48,1.79-2.94,3.7-5.88,5.55-8.76,1.16-1.78,2.38-3.6,3.61-5.35q7.88-11.85,16.48-23c1.75-2.38,3.57-4.69,5.39-7a20.17,20.17,0,0,1,1.42-1.75c2.54-3.24,5.15-6.51,7.83-9.65,2.91-3.47,5.92-6.91,8.89-10.31,2.64-2.94,5.25-5.88,8-8.75,3.64-4,7.4-7.94,11.34-11.77,3.3-3.34,6.64-6.67,10-9.84a3.83,3.83,0,0,1,.72-.73c9.88-9.39,20.26-18.41,30.93-27,3.54-2.91,7.11-5.65,10.77-8.46a4.61,4.61,0,0,1,.7-.53q11-8.23,22.33-15.93c3.84-2.61,7.74-5.18,11.7-7.66a498.4,498.4,0,0,1,48.74-27.23,505,505,0,0,1,78.24-30.33c4.53-1.36,9-2.65,13.55-3.77,8.82-2.38,17.71-4.43,26.7-6.28a7.08,7.08,0,0,1,1.75-.39c4.29-.83,8.59-1.66,12.88-2.42,4.66-.79,9.32-1.55,14-2.24q14-2,28.22-3.27c9.48-.83,19-1.33,28.55-1.66A503.48,503.48,0,0,1,710.94,47.89c5.19,2.44,10.31,4.92,15.43,7.5,12.66,6.44,25,13.35,36.91,20.78,2.44,1.45,4.79,3,7.17,4.53,2.87,1.78,5.68,3.66,8.52,5.61,1.82,1.26,3.64,2.45,5.42,3.74q10.36,7.08,20.29,14.83c1.78,1.36,3.5,2.68,5.22,4.1,3,2.28,6,4.73,8.89,7.17,3.53,2.94,7.07,5.95,10.44,9,2.48,2.11,4.86,4.29,7.3,6.51,2.05,1.85,4.07,3.7,6.05,5.65,6,5.74,11.89,11.56,17.68,17.51.26.33.53.56.76.82,3.4,3.57,6.7,7.17,10,10.81s6.47,7.3,9.58,11c5.91,6.94,11.6,14.08,17.08,21.31.6.76,1.16,1.59,1.82,2.45,2.67,3.57,5.28,7.2,7.93,10.87v.07q4.22,5.89,8.22,12c.34.53.67,1,1,1.55,2.31,3.54,4.63,7.11,6.84,10.74,2.11,3.34,4.16,6.71,6.21,10.18l1.36,2.31c2,3.57,4.09,7.17,6.08,10.74.82,1.49,1.58,2.94,2.41,4.49,1.88,3.44,3.67,6.91,5.45,10.35a6.46,6.46,0,0,0,.53,1c2,4,3.93,8.07,5.88,12.16,2,4.4,4.1,8.83,6,13.32s3.84,8.95,5.62,13.41c3.63,9,7,18.18,10.11,27.46,1.59,4.59,3.07,9.25,4.46,13.91s2.74,9.42,4,14.14c1.29,4.56,2.45,9.16,3.6,13.82,0,.16,0,.26,0,.39,1.09,4.83,2.18,9.58,3.24,14.47a2.05,2.05,0,0,0,.09.43c.67,2.95,1.23,5.89,1.72,8.83.4,1.81.73,3.6,1,5.45.66,3.5,1.22,7,1.75,10.51.16.89.3,1.78.43,2.67.53,3.24,1,6.58,1.35,9.85.56,4.16,1,8.33,1.46,12.52s.82,8.46,1.15,12.69c.27,3.44.53,7,.73,10.47,0,1.29.1,2.58.17,3.84.19,3.73.33,7.37.39,11.07C998.93,491.11,999,495.34,999,499.64Z"/><path class="cls-1" d="M652.88,502.41a153,153,0,1,1-153-153A153,153,0,0,1,652.88,502.41Z"/><path class="cls-2" d="M652.88,502.41a153,153,0,1,1-153-153A153,153,0,0,1,652.88,502.41Z"/><circle class="cls-1" cx="566.7" cy="484.31" r="47.98"/><path class="cls-2" d="M913.8,671.08l-.18.44c-.3.74-.6,1.47-.91,2.2s-.64,1.53-1,2.29q-1,2.24-2,4.47L908.68,683l-1.14,2.54c-1.17,2.57-2.36,5.11-3.57,7.65-.05.12-.11.24-.16.35l-.07.13a441.58,441.58,0,0,1-24.15,43.92q-.6,1-1.23,2h0q-1.22,1.93-2.48,3.86l-.45.69q-3.84,5.94-7.89,11.73l-.36.52c-1,1.45-2,2.9-3.08,4.34-.78,1.09-1.57,2.18-2.37,3.26q-1.32,1.86-2.72,3.69l-.2.28c-1,1.26-1.88,2.51-2.87,3.8l-.23.3-1,1.27q-1.37,1.8-2.78,3.57-1.62,2.05-3.27,4.09c-.79,1-1.59,2-2.39,2.93q-4.12,5.05-8.45,10c-.91,1.05-1.83,2.09-2.75,3.13-1.64,1.87-3.32,3.72-5,5.57h0c-.3.3-.53.56-.8.86-.66.72-1.33,1.44-2,2.15l-.21.22c-.7.76-1.41,1.52-2.13,2.27l-.23.23q-2.68,2.86-5.49,5.67c-.5.52-1,1.05-1.55,1.57l-.21.22-.57.57q-4.33,4.33-8.78,8.53a.13.13,0,0,1-.07.06l-2.21,2.09-.06,0c-1,1-2,1.89-3,2.82l-1,.94c-1.53,1.39-3.08,2.78-4.63,4.15q-2.79,2.46-5.61,4.88c-.84.73-1.69,1.44-2.53,2.15,0,0,0,0,0,0-1.11.94-2.24,1.86-3.37,2.81l-.71.58q-4.78,3.94-9.67,7.74L772.78,855c-.38.3-.75.59-1.14.87s-.73.57-1.11.85q-3.27,2.49-6.59,4.9c-.79.58-1.58,1.16-2.38,1.73l-3.75,2.67-.07,0q-3.74,2.63-7.52,5.17c-.29.21-.59.41-.89.6l-.75.5c-.55.38-1.11.75-1.66,1.11l-1.09.71c-.61.41-1.23.81-1.85,1.21h0l-3.13,2-.13.08-.07,0-.91.57-1.14.72-1.07.67c-1.07.68-2.14,1.34-3.22,2-1.39.86-2.77,1.69-4.2,2.55s-2.78,1.66-4.17,2.48l-2.1,1.22-1.73,1q-4.51,2.6-9.11,5.07l-2,1.11c-1.32.7-2.68,1.39-4,2.11-1.19.63-2.38,1.24-3.58,1.85l-1.22.61-1.22.62c-.62.32-1.24.63-1.86.92-2.48,1.25-5,2.46-7.47,3.65l-3.06,1.43-.8.37c-1.42.63-2.81,1.29-4.23,1.92l-1.74.79-2.31,1c-.72.33-1.44.64-2.17.95-1.07.46-2.12.93-3.19,1.38l-.19.08L673,913h0l-.16.07q-3.68,1.54-7.36,3l-.15.06-.05,0-.51.2c-2.68,1.07-5.36,2.1-8.06,3.11l-.1,0c-1.16.45-2.33.88-3.5,1.3l-.27.1-.36.13-1.6.58-1.12.4c-1.67.6-3.34,1.18-5,1.76h0l-1.75.59h0l-.43.14c-.83.29-1.67.57-2.51.84-1,.34-2,.67-3,1s-1.91.62-2.87.91l0,0-1.41.44q-4.74,1.49-9.53,2.85l-.06,0-.52.15-2.65.74c-1.26.36-2.54.71-3.83,1.05-2.21.6-4.41,1.18-6.63,1.73-.91.24-1.81.47-2.72.69l-2.46.59c-.92.23-1.83.45-2.75.66l-.31.07c-1.61.38-3.2.74-4.8,1.09-.91.21-1.82.41-2.73.59-1.13.25-2.26.49-3.4.72h0l-.13,0h-.06l-.25.05q-5.7,1.17-11.46,2.18c-.56.1-1.12.21-1.69.3s-1.22.23-1.84.33l-2,.34a3.4,3.4,0,0,1-.53.08q-11.3,1.86-22.73,3.13-4.12.46-8.26.85h-.05q-8.38.78-16.83,1.23l-.85,0c-1.66.09-3.31.18-5,.25l-2.32.1h-.13l-1.16,0a442.92,442.92,0,0,1-45-.79h-.11c-.66,0-1.29-.1-1.95-.13l-3.8-.3h0l-3.24-.27-.39,0c-1.33-.12-2.67-.24-4-.38l-.42,0h0q-5.81-.57-11.62-1.31l-.2,0-1.1-.14-.26,0-.51-.06c-.24,0-.47,0-.7-.09q-20.91-2.78-41.88-7.58l-2.17-.52h-.08l-1.92-.46c-3.83-.92-7.66-1.87-11.49-2.9l-2.23-.61c-1.24-.34-2.49-.69-3.73-1q-10.68-3-21.1-6.51l-1.77-.6a444.75,444.75,0,0,1-44.79-18c-.71-.32-1.42-.65-2.13-1l-.25-.12q-2.41-1.12-4.81-2.3l-.31-.15-.65-.33q-9-4.38-17.65-9.17c-.61-.33-1.22-.66-1.82-1l-2.48-1.39-.13-.07q-8.79-5-17.32-10.27-4.1-2.53-8.12-5.19c-.24-.17-.47-.3-.7-.46l-.13-.09c-2.7-1.77-5.37-3.56-8-5.4q-1-.66-1.95-1.35c-.28-.19-.57-.39-.85-.6a442.94,442.94,0,0,1-51.33-42c-1.17-1.14-2.39-2.25-3.56-3.4q-8.61-8.35-16.74-17.17c-.42-.44-.82-.88-1.22-1.33q-11.62-12.66-22.19-26.15c-.1-.12-.19-.25-.29-.35s-.37-.47-.53-.7c-1.62-2.08-3.24-4.19-4.83-6.31l-.36-.46s0-.07-.07-.1l-1-1.33-1-1.35c-.68-.9-1.34-1.8-2-2.71-1.5-2-3-4.09-4.41-6.16q-3-4.2-5.81-8.48l-.26-.39L126,746l0,0c-.89-1.35-1.78-2.71-2.64-4.06-.63-1-1.26-2-1.85-2.91q-5.18-8.16-10-16.56l0-.08q-2.48-4.32-4.86-8.69l-.1-.18c-.38-.7-.74-1.38-1.12-2.05,0-.09-.09-.17-.14-.26l-.83-1.57-.82-1.57v0Q94.76,691.2,87.38,673.7c0-.06,0-.11-.07-.16s-.11-.27-.17-.4-.2-.47-.3-.71-.27-.62-.39-.95q-2.2-5.29-4.25-10.64s0,0,0,0A815.56,815.56,0,0,0,501.41,776,816.15,816.15,0,0,0,917,663h0C916,665.69,914.9,668.39,913.8,671.08Z"/><path class="cls-2" d="M917.75,339.15v0A820.66,820.66,0,0,0,81.31,341.4c.36-.95.72-1.9,1.09-2.85a.14.14,0,0,1,0-.06c.76-2,1.54-4,2.34-6,.16-.42.33-.83.5-1.24q1.27-3.17,2.6-6.28c.26-.63.53-1.25.8-1.88a.61.61,0,0,0,.07-.14c.26-.64.54-1.27.82-1.91.12-.29.24-.58.38-.86.34-.8.68-1.59,1-2.37h0q3.34-7.53,6.94-14.87a1.24,1.24,0,0,0,.1-.2q2.8-5.72,5.77-11.34l.34-.65,1.62-3h0q2-3.66,4-7.28l.31-.55c.82-1.46,1.63-2.89,2.47-4.32.29-.53.6-1,.9-1.57a.56.56,0,0,0,.07-.13l.21-.35c1-1.64,1.94-3.27,2.91-4.91L117,268l1-1.56c1.89-3.1,3.81-6.17,5.79-9.22q.64-1,1.32-2c1.15-1.79,2.34-3.54,3.5-5.29,0-.07.1-.13.13-.2.94-1.39,1.88-2.78,2.83-4.13q.52-.78,1.08-1.56v0c.74-1.06,1.48-2.11,2.23-3.16l.62-.87q2.82-4,5.72-7.84c.48-.65,1-1.29,1.46-1.94.76-1,1.51-2,2.28-3,.6-.8,1.22-1.6,1.84-2.38s1.29-1.65,1.95-2.48c.21-.27.42-.54.64-.8l1.1-1.38,0,0,1.11-1.38c.23-.3.46-.59.7-.88l1.43-1.74.12-.14.62-.76h0l.65-.77c1.34-1.62,2.7-3.22,4.06-4.82l0,0,.41-.46c.95-1.12,1.9-2.23,2.87-3.33.2-.24.41-.48.62-.71l.11-.13.53-.61,1.13-1.27q1.54-1.76,3.13-3.49l.48-.54c.5-.53,1-1.09,1.49-1.62l3.35-3.61.21-.22q2.2-2.37,4.46-4.69c.36-.38.73-.76,1.1-1.13l.25-.24a6,6,0,0,1,.5-.51l.26-.27c.67-.7,1.36-1.4,2.06-2.09.17-.18.34-.36.52-.53l2-2c.07-.07.15-.14.22-.22l1.54-1.51c.85-.84,1.71-1.68,2.57-2.49l.18-.18c.33-.33.66-.64,1-1l.35-.33c.56-.54,1.12-1.08,1.69-1.6.91-.87,1.82-1.73,2.74-2.58l.29-.27q3.32-3.08,6.7-6.08l.29-.26.25-.22,0,0,.21-.19q4.59-4.08,9.31-8l1.41-1.18c.51-.43,1-.86,1.54-1.27l.25-.21a.87.87,0,0,1,.11-.09q2.07-1.71,4.15-3.38a0,0,0,0,1,0,0h0l1.56-1.24,2.31-1.83.87-.68q5.82-4.55,11.79-8.88,1.24-.93,2.52-1.83l0,0c.86-.63,1.73-1.25,2.6-1.85s1.64-1.17,2.46-1.72l.44-.32q5.7-4,11.53-7.77l2.21-1.42.33-.21q3.09-2,6.21-3.91c1.13-.71,2.27-1.4,3.41-2.09,1.45-.89,2.94-1.78,4.42-2.64.8-.48,1.59-.95,2.39-1.41q.85-.51,1.71-1c.78-.46,1.56-.9,2.34-1.35.26-.16.53-.3.8-.45,1.62-.92,3.27-1.82,4.92-2.74l.62-.34c1.39-.77,2.79-1.52,4.19-2.27l.05,0q7.18-3.84,14.51-7.41l.33-.16.4-.2L309.15,95q4.26-2,8.56-3.93l1.58-.7.91-.4,2.4-1c1.07-.48,2.15-.94,3.23-1.39l3.7-1.55c1.09-.45,2.19-.9,3.29-1.33l.35-.14.08,0c2.21-.9,4.42-1.77,6.64-2.63l5.22-2,5-1.8c.57-.21,1.14-.41,1.72-.6l1.46-.51q3.83-1.33,7.68-2.6h0l2.66-.86q17.13-5.5,34.73-9.64l.33-.07.23-.06q10.83-2.52,21.81-4.5c2-.37,4-.71,6-1l.72-.11c.62-.11,1.24-.21,1.87-.3l.58-.1c1-.16,2-.32,3-.46l1.18-.18.11,0,.6-.08c.58-.1,1.17-.18,1.75-.26l2.79-.39,1.37-.19h0c.93-.13,1.86-.26,2.79-.37,1.23-.16,2.47-.31,3.7-.45q2.74-.34,5.51-.63l.81-.08.11,0,.2,0,2-.2c.5,0,1-.09,1.5-.15,1.82-.16,3.67-.36,5.48-.49,1.1-.1,2.21-.19,3.32-.27h.06l5.64-.39h.1c.17,0,.33,0,.5,0,1.32-.09,2.64-.16,4-.23l.53,0,2.18-.1c2.84-.14,5.68-.24,8.52-.32l1,0c1.58-.05,3.16-.08,4.74-.1h.74c3.1,0,6.21,0,9.33,0l3.59,0,2.36,0,2.33.05h.25l3.24.11,1.34,0h.13c2,.08,4,.16,6,.27l2.49.14c.76,0,1.52.08,2.28.14h.29l1.18.08q3.14.2,6.27.45l1.56.13a446,446,0,0,1,50,7c.16,0,.31.06.47.09Q600.5,63.51,613.76,67l1,.25,1.15.3c1.81.49,3.62,1,5.42,1.49l.25.07h0q8.48,2.4,16.79,5.09l2.8.93c.92.3,1.84.6,2.75.92l1.38.47.27.09c1.28.43,2.56.88,3.83,1.32l2.72,1,1.76.64c.73.26,1.46.53,2.18.81,1,.36,2,.75,2.94,1.12l1.48.56q2.91,1.11,5.81,2.26l.43.17,1.08.44c1.34.54,2.69,1.07,4,1.63l.84.35.64.26c.49.19,1,.4,1.46.62l.2.08c1.33.55,2.65,1.12,4,1.7l2.63,1.14.05,0,.61.27.23.1c3.67,1.64,7.31,3.31,10.91,5,.69.35,1.39.68,2.08,1l1.65.79c2.34,1.14,4.67,2.3,7,3.5,2.68,1.35,5.35,2.75,8,4.17l.12.06.88.48c.58.31,1.15.62,1.72.95l1.14.62q4.15,2.27,8.24,4.65c1,.53,1.89,1.08,2.83,1.63l2.22,1.32q11,6.52,21.52,13.65h0s0,0,.08.06l.13.09h0c2,1.4,4.1,2.81,6.13,4.24.94.65,1.86,1.32,2.79,2h0l0,0q6.8,4.83,13.37,9.92h0c1.09.84,2.18,1.7,3.27,2.55a444,444,0,0,1,41.78,37.31l.43.43,2.36,2.43,0,0q3.32,3.4,6.51,6.87l.36.39q4,4.26,7.78,8.62c.44.47.85.95,1.26,1.42l0,0,1.61,1.86.06.07q8.37,9.69,16.14,19.83h0l.14.19.63.83a1.37,1.37,0,0,0,.15.21q2,2.66,4,5.35c1.09,1.47,2.16,2.93,3.24,4.42.24.35.49.69.74,1,1.25,1.74,2.48,3.48,3.7,5.24l0,0,.24.35c.83,1.2,1.65,2.39,2.46,3.6,1.54,2.26,3.06,4.53,4.54,6.82l.63,1c.76,1.16,1.51,2.33,2.24,3.5.36.56.71,1.12,1.06,1.68l1,1.63,1.68,2.72c2.28,3.68,4.48,7.4,6.63,11.15l.12.2a.06.06,0,0,1,0,.05,1.28,1.28,0,0,1,.15.25c.86,1.49,1.7,3,2.54,4.48.37.67.75,1.34,1.12,2l.08.14,1.2,2.2c.09.16.18.31.26.47.91,1.68,1.82,3.37,2.71,5.07l.9,1.73c.31.6.63,1.2.93,1.8.11.2.22.41.32.62a.21.21,0,0,0,0,.07l.11.23q1.4,2.7,2.74,5.43c.29.58.58,1.17.86,1.75a4.93,4.93,0,0,0,.23.46l3,6.21c1.12,2.41,2.21,4.79,3.3,7.2.86,1.92,1.69,3.83,2.51,5.78.13.27.24.54.36.81s.27.62.39.94.23.53.34.8c0,0,0,0,0,0,.19.44.37.88.55,1.32.29.71.59,1.41.89,2.13Q915.79,334.06,917.75,339.15Z"/><polygon class="cls-2" points="917.75 339.18 917.75 339.17 917.76 339.18 917.75 339.18"/><path class="cls-3" d="M998.8,486.82c-.06-3.7-.2-7.34-.39-11.07-.07-1.26-.14-2.55-.17-3.84-.2-3.5-.46-7-.73-10.47-.33-4.23-.69-8.46-1.15-12.69s-.9-8.36-1.46-12.52c-.39-3.27-.82-6.61-1.35-9.85-.13-.89-.27-1.78-.43-2.67-.53-3.54-1.09-7-1.75-10.51-.3-1.85-.63-3.64-1-5.45-.49-2.94-1.05-5.88-1.72-8.83a2.05,2.05,0,0,1-.09-.43c-1.06-4.89-2.15-9.64-3.24-14.47,0-.13,0-.23,0-.39-1.15-4.66-2.31-9.26-3.6-13.82-1.29-4.72-2.61-9.45-4-14.14s-2.87-9.32-4.46-13.91c-3.07-9.28-6.48-18.44-10.11-27.46-1.78-4.46-3.63-9-5.62-13.41s-4-8.92-6-13.32c-1.95-4.09-3.9-8.13-5.88-12.16a6.46,6.46,0,0,1-.53-1c-1.78-3.44-3.57-6.91-5.45-10.35-.83-1.55-1.59-3-2.41-4.49-2-3.57-4-7.17-6.08-10.74l-1.36-2.31c-2.05-3.47-4.1-6.84-6.21-10.18-2.21-3.63-4.53-7.2-6.84-10.74-.36-.53-.69-1-1-1.55q-4-6.09-8.22-12V212c-2.65-3.67-5.26-7.3-7.93-10.87-.66-.86-1.22-1.69-1.82-2.45-5.48-7.23-11.17-14.37-17.08-21.31-3.11-3.7-6.31-7.4-9.58-11s-6.58-7.24-10-10.81c-.23-.26-.5-.49-.76-.82-5.79-5.95-11.63-11.77-17.68-17.51-2-2-4-3.8-6.05-5.65-2.44-2.22-4.82-4.4-7.3-6.51-3.37-3-6.91-6-10.44-9-2.91-2.44-5.88-4.89-8.89-7.17-1.72-1.42-3.44-2.74-5.22-4.1q-9.91-7.77-20.29-14.83c-1.78-1.29-3.6-2.48-5.42-3.74-2.84-2-5.65-3.83-8.52-5.61-2.38-1.52-4.73-3.08-7.17-4.53-11.9-7.43-24.25-14.34-36.91-20.78-5.12-2.58-10.24-5.06-15.43-7.5A503.48,503.48,0,0,0,485.3,1.26c-9.55.33-19.07.83-28.55,1.66s-18.87,1.91-28.22,3.27c-4.66.69-9.32,1.45-14,2.24-4.29.76-8.59,1.59-12.88,2.42a7.08,7.08,0,0,0-1.75.39c-9,1.85-17.88,3.9-26.7,6.28-4.56,1.12-9,2.41-13.55,3.77a505,505,0,0,0-78.24,30.33,498.4,498.4,0,0,0-48.74,27.23c-4,2.48-7.86,5.05-11.7,7.66q-11.4,7.68-22.33,15.93a4.61,4.61,0,0,0-.7.53c-3.66,2.81-7.23,5.55-10.77,8.46-10.67,8.55-21.05,17.57-30.93,27a3.83,3.83,0,0,0-.72.73c-3.37,3.17-6.71,6.5-10,9.84-3.94,3.83-7.7,7.8-11.34,11.77-2.71,2.87-5.32,5.81-8,8.75-3,3.4-6,6.84-8.89,10.31-2.68,3.14-5.29,6.41-7.83,9.65a20.17,20.17,0,0,0-1.42,1.75c-1.82,2.28-3.64,4.59-5.39,7q-8.62,11.21-16.48,23c-1.23,1.75-2.45,3.57-3.61,5.35-1.85,2.88-3.76,5.82-5.55,8.76-2,3.14-3.9,6.28-5.75,9.48-1.29,2.05-2.51,4.1-3.66,6.22-2.05,3.5-4.1,7.07-6,10.67-2.05,3.7-4,7.47-6,11.33a2.68,2.68,0,0,0-.27.43c-2.11,4.16-4.23,8.46-6.21,12.72-.2.4-.4.83-.59,1.22-2,4.17-3.84,8.4-5.69,12.59q-3,6.84-5.75,13.78c-1.61,3.9-3.13,7.87-4.62,11.9C32,327.09,31.53,328.51,31,330c-1.39,3.93-2.81,7.89-4.1,11.83-1.45,4.36-2.87,8.78-4.19,13.21-1.62,5.22-3.17,10.54-4.56,15.83-.89,3.53-1.85,7.1-2.68,10.64a2.56,2.56,0,0,0-.13.69c-.4,1.29-.69,2.61-1,3.9-.53,2.18-1,4.3-1.42,6.44s-1,4.17-1.33,6.25c-1,4.46-1.85,9-2.64,13.48-.5,2.81-1,5.55-1.39,8.39-.53,2.68-.89,5.29-1.29,8-.62,4.16-1.15,8.32-1.68,12.49-.43,3.63-.83,7.23-1.12,10.87-.27,1.78-.4,3.6-.6,5.38C1.66,471.72,1,486.12,1,500.36c0,8.16.2,16.23.59,24.26.07,1.15.14,2.31.17,3.47.2,3.47.46,6.9.73,10.4.36,4.23.76,8.46,1.15,12.63.9,8.42,2,16.81,3.24,25.11.7,4.16,1.42,8.32,2.12,12.49s1.62,8.26,2.44,12.36c1,5,2.18,10,3.31,14.9A500,500,0,0,0,61.83,738.46a2.55,2.55,0,0,0,.33.66c4.59,8.3,9.35,16.49,14.34,24.49Q84.24,776,92.59,787.89s0,.07,0,.07c2.65,3.64,5.26,7.3,7.93,10.87.6.86,1.16,1.62,1.82,2.45q8.22,10.85,17.08,21.31c3.11,3.7,6.31,7.4,9.58,11s6.58,7.24,10,10.81c.23.26.5.56.76.82,5.79,5.95,11.63,11.77,17.68,17.51,2,1.89,3.93,3.8,6.05,5.65,2.44,2.22,4.82,4.4,7.3,6.51,3.37,3,6.91,6,10.44,9,2.88,2.44,5.88,4.79,8.89,7.17,1.72,1.42,3.44,2.74,5.22,4.1,6.61,5.12,13.32,10,20.29,14.83,1.78,1.29,3.6,2.48,5.42,3.74,2.84,1.91,5.65,3.73,8.52,5.61,2.38,1.52,4.73,3.08,7.17,4.53,11.9,7.43,24.25,14.41,36.91,20.78,5.05,2.65,10.18,5.12,15.43,7.5A503.48,503.48,0,0,0,514.7,998.74c9.55-.24,19.07-.76,28.55-1.66s18.94-1.85,28.25-3.27c4.69-.69,9.35-1.45,14-2.24s9.22-1.66,13.78-2.61c.09,0,.19-.07.23,0,4.62-1,9.15-2,13.68-3.08A481.76,481.76,0,0,0,706,954.36c4.06-1.85,8-3.73,12-5.65.66-.33,1.29-.63,2-1,3.76-1.85,7.46-3.76,11.17-5.68,4.09-2.18,8.26-4.36,12.29-6.68s8.13-4.59,12.09-6.93,8-4.8,11.9-7.31,7.86-5,11.69-7.66,7.7-5.26,11.53-8c3.34-2.35,6.65-4.83,10-7.34.56-.39,1.16-.82,1.79-1.32,3.53-2.71,7-5.38,10.47-8.23.53-.43,1.06-.82,1.55-1.19,9.78-8,19.3-16.25,28.45-24.94,6.65-6.21,13.12-12.69,19.4-19.33,2.31-2.35,4.53-4.79,6.77-7.27,4.3-4.69,8.49-9.42,12.49-14.28,1.92-2.18,3.77-4.42,5.55-6.67,1.16-1.39,2.32-2.81,3.41-4.23,2.74-3.37,5.35-6.84,8-10.28,2.81-3.7,5.62-7.5,8.3-11.33,3.4-4.72,6.74-9.51,9.84-14.44,2-3,3.9-5.88,5.72-8.82.69-1.06,1.35-2,1.92-3.14,1.58-2.44,3.14-4.92,4.52-7.43,1.29-2.05,2.51-4.1,3.64-6.22,2.08-3.5,4.06-7.07,6-10.67s4-7.47,6-11.33a3.18,3.18,0,0,1,.23-.43c2.12-4.16,4.17-8.46,6.21-12.72.2-.4.4-.83.6-1.22,1.92-4.17,3.83-8.4,5.68-12.59,1.92-4.37,3.7-8.73,5.49-13.12.33-.76.66-1.55,1-2.38,1.19-3.21,2.48-6.38,3.63-9.65,1.52-4,3-8.06,4.33-12.16.76-2.18,1.56-4.36,2.25-6.61q1.74-5.05,3.27-10.21c1.65-5.58,3.24-11.2,4.79-16.81.13-.6.33-1.1.43-1.69.86-2.94,1.55-5.95,2.25-8.89.92-3.7,1.81-7.37,2.57-11,.5-2.09,1-4.13,1.33-6.08.66-3,1.22-6,1.81-9,.3-1.52.57-3.07.83-4.59.69-3.9,1.39-7.87,2-11.83.2-.9.3-1.79.46-2.78.67-4.79,1.33-9.58,1.92-14.37.43-3.41.83-6.78,1.06-10.18.26-2.11.46-4.23.66-6.31,1.26-14.27,1.85-28.55,1.85-42.72C999,495.34,998.93,491.11,998.8,486.82Zm-66.31,129c-2,7.43-4.17,14.7-6.48,21.87-1,3.2-2.11,6.41-3.2,9.52-.14.39-.3.82-.43,1.28-1,2.71-2,5.39-3,8.07-.19.62-.46,1.35-.72,2-.2.46-.3.89-.5,1.35-.39,1-.79,2.05-1.15,3h0l0,0c-.4,1.06-.79,2.08-1.22,3.14-.64,1.63-1.31,3.28-2,4.91-.37.88-.72,1.76-1.09,2.64s-.64,1.53-1,2.29q-1.5,3.53-3.06,7l-1.14,2.54c0,.07-.07.1-.1.17q-1.71,3.78-3.47,7.48l-.23.48c-.1.19-.19.37-.26.53-1.39,2.88-2.81,5.72-4.23,8.56-2.88,5.65-5.89,11.27-9,16.75-1.16,2.12-2.35,4.2-3.57,6.28s-2.44,4.2-3.73,6.24c-.93,1.59-1.89,3.14-2.85,4.7l-.52.86c-.4.66-.81,1.33-1.23,2h0c-.75,1.22-1.51,2.4-2.3,3.59l-.18.27-.45.69c-2.61,4-5.25,7.83-7.89,11.73l-.36.52a.61.61,0,0,0-.07.1q-1.49,2.14-3,4.24c-.78,1.09-1.57,2.18-2.37,3.26l-1.83,2.48c-.29.41-.58.81-.89,1.21l-.2.28c-1,1.26-1.88,2.51-2.87,3.8-.07.1-.17.2-.23.3l-1,1.27q-1.38,1.8-2.78,3.57-1.62,2.05-3.27,4.09c-.79,1-1.59,2-2.39,2.93q-1.93,2.33-3.87,4.56c-.29.36-.62.76-.92,1.16s-.63.72-1,1.12c-.89,1.05-1.79,2.11-2.7,3.15s-1.83,2.09-2.75,3.13c-1.19,1.32-2.41,2.64-3.6,4-.5.53-1,1.08-1.41,1.61h0c-.3.3-.53.56-.8.86-.66.73-1.32,1.42-2,2.15l-.21.22c-.7.76-1.41,1.52-2.13,2.27l-.23.23c-.75.79-1.52,1.58-2.29,2.37a1.48,1.48,0,0,0-.33.33,3.42,3.42,0,0,1-.33.33l-.83.82c-.43.47-.86.93-1.32,1.39a5.57,5.57,0,0,0-.39.43c-.5.52-1,1.05-1.55,1.57l-.21.22-.57.57-.58.55a9.29,9.29,0,0,1-.86.82c-.53.53-1.06,1.06-1.62,1.56-1.16,1.15-2.31,2.31-3.5,3.47l-2.22,2.13a.13.13,0,0,1-.07.06l-2.21,2.09-.06,0c-1,.94-2,1.88-3,2.82l-1,.94c-1.38,1.26-2.77,2.48-4.16,3.74l-.1.1c-.13.13-.26.23-.36.33-1.82,1.67-3.69,3.27-5.62,4.86l-.83.69c-.39.36-.79.69-1.22,1h0a2.44,2.44,0,0,1-.3.27.92.92,0,0,0-.15.14s0,0,0,0c-1.11.94-2.24,1.86-3.37,2.81l-.67.56,0,0s0,0,0,0c-3.2,2.65-6.39,5.22-9.65,7.69l-1.45,1.1-.91.72c-.38.3-.75.59-1.14.87s-.73.57-1.11.85l-.54.4c-1.46,1.09-2.91,2.18-4.37,3.24l-1.68,1.26c-.79.58-1.58,1.16-2.38,1.73-1.13.83-2.26,1.63-3.4,2.43l-.35.24-.07,0a2.2,2.2,0,0,1-.28.18c-1.32.93-2.61,1.82-3.9,2.68-1,.72-2,1.45-3.1,2.14l-.24.17c-.3.22-.59.42-.89.6l-.36.23-.39.27c-.54.4-1.1.76-1.66,1.11l-1.09.71-1.09.71-.39.24-.37.26h0l-.09.09c-1,.66-2,1.3-3,1.93l-.13.08-.07,0a8.07,8.07,0,0,1-.91.57l-.14.08-1,.64-1.07.67-1.37.84c-.63.39-1.25.76-1.85,1.15-1.39.86-2.77,1.69-4.2,2.55l-3.17,1.88-1,.6-2.1,1.22-1.73,1-1.71,1q-3,1.72-6.11,3.4l-1.29.71-2,1.11c-1.32.7-2.68,1.39-4,2.11l-1.1.6c-.82.43-1.65.84-2.48,1.25l-1.22.61-1.22.62c-.63.29-1.26.62-1.86.92l-3.1,1.52-1.22.6c-1.07.51-2.11,1-3.15,1.53l-.65.32-2.41,1.11c-2.25,1-4.5,2.07-6.77,3.08L680,910l-.55.24-2.17.95-1.61.66c-.26.13-.56.27-.82.37l-.76.35-.19.08-.77.33a.12.12,0,0,1-.09,0h0l-.16.07c-2.43,1.06-4.85,2-7.31,3h0l-.15.06-.05,0-.51.2-.23.11c-2.61,1.06-5.22,2.05-7.83,3l-.1,0L655,920s0,0-.07,0-.06,0-.1,0l-1.71.66-.27.1-.36.13c-.53.2-1.06.4-1.6.58-.17.07-.34.12-.52.18l-.6.22c-1.55.58-3.1,1.14-4.68,1.69l-.34.07h0l-.35.1-.59.2-.81.29h0l-.43.14c-.14,0-.28.09-.43.12-.69.25-1.38.49-2.08.72L638,926c-.31.12-.64.22-1,.32l-1,.3a8.84,8.84,0,0,1-1,.3c-.32.12-.6.19-.92.31l0,0-1.41.44-.77.22-3.27,1c-1.72.53-3.4,1-5.12,1.52a2.61,2.61,0,0,0-.37.12l-.06,0-.52.15-2.65.74c-1.27.36-2.55.7-3.83,1.05l-1.89.5c-.62.17-1.29.33-2,.5-.46.13-.92.26-1.38.36l-1.41.37c-.89.24-1.78.47-2.69.69h0l-2.46.59-2.43.56-.32.1-.31.07c-1.61.38-3.2.74-4.8,1.09l-1.61.33-1.12.26c-1.11.25-2.23.48-3.34.7l-.06,0h0l-.13,0h-.06l-.25.05h-.11c-1.75.33-3.47.7-5.19,1s-3.44.62-5.15,1l-1,.19-1.69.3-.81.14-1,.19c-.66.13-1.32.23-2,.34a3.4,3.4,0,0,1-.53.08l-.43,0c-1.59.27-3.17.5-4.76.73l-.23,0c-1.19.2-2.35.37-3.54.53a1.88,1.88,0,0,1-.36.07l-3.83.49c-.56.07-1.09.17-1.65.23s-1.23.17-1.85.24-1.09.13-1.62.16c-.73.13-1.46.23-2.22.33l-.89.1c-.46.07-.89.1-1.35.17-1.49.16-3,.29-4.43.46-.86.1-1.72.16-2.55.26l-1.28.13h-.05l-1.24.1c-1.72.17-3.44.3-5.12.4a3.35,3.35,0,0,1-.53.07h-.1c-.07,0-.1,0-.13,0l-2,.2a5.27,5.27,0,0,0-.79.07l-.9,0c-.92.07-1.81.13-2.7.17h-.14c-1,.09-2.11.17-3.16.23l-.85,0c-.87,0-1.75.1-2.63.12h0l-2.31.13-2.32.1h-.13a11.24,11.24,0,0,0-1.16,0c-1.28,0-2.61.06-3.89.06a7.75,7.75,0,0,1-1.52,0c-1.39.06-2.81.09-4.2.09s-2.71,0-4.1,0c-2.64,0-5.32,0-8-.07h-.27c-4-.06-8-.16-12-.36-1.59-.07-3.17-.13-4.76-.23-2.11-.14-4.22-.23-6.33-.36l-2.06-.14q-3.52-.24-7.07-.57l-.39,0-2.95-.29c-.4,0-.76-.07-1.06-.09l-.29,0H456l-.16,0c-3.51-.36-7.08-.76-10.64-1.19-.28,0-.55,0-.82-.09l-.2,0-1-.12-.1,0-.26,0-.51-.06c-.24,0-.47,0-.7-.09l-.28-.05-1.42-.2c-8.89-1.25-17.71-2.71-26.67-4.46-2.44-.5-4.89-1-7.33-1.52-2.05-.46-4.13-.89-6.18-1.35l-.49-.14c-.47-.1-.9-.2-1.36-.33l-.32,0-2-.47-4.22-1-6-1.59c-.4-.13-.83-.19-1.23-.29h-.06l-2.23-.6c-1.25-.34-2.48-.7-3.73-1-1-.28-2-.56-2.93-.86l-2.38-.7c-2.18-.63-4.33-1.29-6.47-1.95-1.56-.49-3.14-1-4.7-1.52-.95-.3-1.88-.56-2.77-.89l-1.85-.59-.93-.3q-.42-.13-.84-.3l-.35-.13c-2.84-1-5.65-2-8.46-3-2.24-.82-4.46-1.65-6.67-2.51-1.75-.63-3.44-1.29-5.16-2l-.29-.1c-.86-.33-1.75-.73-2.65-1.09L329,913.78c-1.29-.49-2.61-1-3.9-1.58l-1.85-.79c-1.36-.57-2.71-1.16-4.07-1.76s-2.9-1.28-4.36-1.94l-4.36-2-1.88-.89-.25-.11-.25-.12c-.82-.4-1.68-.83-2.54-1.22s-1.51-.73-2.27-1.08l-.31-.15-.65-.33-.64-.33c-1.25-.62-2.54-1.29-3.8-2s-2.61-1.29-3.86-1.95-2.58-1.35-3.84-2c-1.83-1-3.68-1.94-5.51-2.93-.61-.33-1.22-.66-1.82-1l-2.61-1.46c-.78-.44-1.56-.89-2.32-1.35l-5.51-3.17c-1.39-.83-2.78-1.66-4.13-2.52-1.56-.92-3.08-1.85-4.6-2.77a4.8,4.8,0,0,0-.76-.46c-1.38-.9-2.8-1.79-4.19-2.71-1.16-.73-2.28-1.46-3.44-2.18l-.49-.3-.83-.55-3.07-2.09c-.27-.2-.57-.37-.86-.57-1.29-.89-2.61-1.71-3.9-2.61-.07,0-.13-.1-.2-.13q-1-.66-1.95-1.35h0c-.27-.2-.55-.39-.82-.6-1-.71-2-1.45-3-2.15-3-2.14-6-4.29-9-6.6-1.15-.83-2.32-1.73-3.5-2.63l-2.44-1.87-2.88-2.28-3.81-3c-1.94-1.58-3.87-3.16-5.79-4.76-2.52-2.08-4.95-4.21-7.42-6.42-.67-.56-1.33-1.15-2-1.73-1-.88-2-1.74-3-2.63s-1.79-1.65-2.68-2.48c-1.49-1.35-3-2.74-4.46-4.13L192,824.93l-.14-.13q-1.78-1.69-3.56-3.4c-1.22-1.19-2.41-2.41-3.6-3.6l-1-1c-1.36-1.36-2.68-2.71-4-4.07-1-1-2-2-2.94-3-.2-.24-.4-.43-.6-.67-.82-.85-1.68-1.75-2.48-2.61-.62-.66-1.28-1.32-1.88-2l-.25-.25c-.21-.22-.42-.43-.61-.64s-.23-.26-.36-.4l-.25-.29c-.66-.76-1.35-1.49-2-2.25l-2.67-2.94c-.86-1-1.72-2-2.58-3-2-2.31-4-4.62-5.95-7-3-3.54-6-7.17-8.89-10.84l-.1-.11c-.1-.12-.19-.25-.29-.35s-.37-.47-.53-.7c-1.62-2.08-3.24-4.19-4.83-6.31l-.36-.46s0-.07-.07-.1c-.33-.43-.66-.87-1-1.33l-1-1.35c-.68-.9-1.34-1.8-2-2.71-1.49-2-2.94-4.09-4.4-6.18-1.95-2.81-3.91-5.62-5.82-8.46l-.26-.39c-.49-.73-1-1.42-1.45-2.15a2.64,2.64,0,0,1-.18-.3l0,0c-.89-1.35-1.78-2.71-2.64-4.06-.63-1-1.26-2-1.85-2.91-1.52-2.45-3-4.92-4.53-7.4-.58-.94-1.15-1.87-1.71-2.81-.44-.75-.89-1.49-1.33-2.25-.33-.56-.63-1.12-.92-1.68s-.66-1.06-1-1.62l-.49-.8,0-.08-.43-.77c-.66-1.13-1.29-2.25-1.89-3.37-.53-.9-1-1.79-1.48-2.68-.37-.63-.7-1.26-1.06-1.87s-.82-1.48-1.22-2.23c0-.09-.09-.17-.14-.26l-.83-1.57c-.28-.53-.54-1.06-.82-1.59h0c-.36-.7-.69-1.36-1-2.05q-5.85-11.2-11-22.7c-1.13-2.55-2.25-5.12-3.34-7.7-.28-.61-.55-1.22-.82-1.82l-.24-.56a2.78,2.78,0,0,1-.16-.4c0-.1-.1-.21-.14-.31-.14-.31-.27-.62-.39-.95l-.17-.42c-.3-.7-.56-1.42-.86-2.15l-3.17-8,0,0,0,0q-4-10.41-7.56-21.05c-3.11-9.58-6-19.27-8.43-29.11A395.57,395.57,0,0,1,57.73,570c-.76-4.42-1.38-8.89-1.91-13.38,0-.26-.07-.43-.07-.63-.63-4.52-1.12-9.08-1.52-13.61A446.24,446.24,0,0,1,67.51,384.15c2.18-8.12,4.63-16,7.17-23.92,1-3.14,2.12-6.31,3.21-9.45.89-2.44,1.72-4.92,2.68-7.37.19-.62.46-1.35.72-2v0a10.16,10.16,0,0,1,.5-1.32c.19-.51.41-1,.61-1.53a.14.14,0,0,1,0-.06c.66-1.68,1.32-3.37,2-5,.11-.31.23-.63.36-.94s.33-.83.5-1.24c.69-1.79,1.45-3.54,2.18-5.32.15-.31.29-.64.42-1s.27-.65.4-1,.26-.6.4-.92a.61.61,0,0,0,.07-.14c.23-.56.49-1.15.76-1.71a.56.56,0,0,0,.06-.2c.12-.29.24-.58.38-.86L90,320c.29-.73.62-1.41,1-2.14h0c.07-.2.17-.4.27-.63.39-.92.82-1.85,1.22-2.77.53-1.13,1-2.25,1.55-3.34,1.29-2.74,2.58-5.45,3.9-8.13a1.24,1.24,0,0,0,.1-.2,1.11,1.11,0,0,1,.07-.16c.56-1.13,1.12-2.25,1.68-3.41.7-1.35,1.39-2.71,2.08-4.06,0-.07,0-.1.07-.13.62-1.2,1.23-2.4,1.87-3.58l.34-.65c.53-1,1.06-2,1.62-3h0c1.29-2.45,2.65-4.86,4-7.27.1-.2.23-.4.33-.56.82-1.46,1.63-2.89,2.47-4.32l.84-1.43a1,1,0,0,0,.06-.14.56.56,0,0,0,.07-.13l.21-.35c1-1.64,1.94-3.27,2.91-4.91L117,268l1-1.56c1-1.57,1.91-3.11,2.88-4.62s1.93-3.09,2.91-4.6l1-1.52a5,5,0,0,0,.33-.52c1.15-1.79,2.34-3.54,3.5-5.29,0-.07.1-.13.13-.2.94-1.39,1.88-2.78,2.83-4.13.31-.46.63-.91.94-1.35a1.91,1.91,0,0,1,.14-.21v0l.18-.2c.68-1,1.36-2,2-3l.62-.87c1.86-2.65,3.78-5.27,5.72-7.84.48-.65,1-1.29,1.46-1.94l1.48-1.92.8-1.06c.6-.8,1.22-1.6,1.84-2.38s1.29-1.65,1.95-2.48c.21-.27.42-.54.64-.8l.62-.75.48-.63,0,0,.51-.65c.2-.27.4-.5.6-.73s.46-.59.7-.88l1.43-1.74.12-.14c.21-.24.41-.49.62-.74v0l.65-.77,2.53-3c.29-.37.62-.73.92-1.09a6.47,6.47,0,0,1,.5-.56c0-.06.08-.12.11-.17s.28-.33.43-.49.3-.35.48-.53.36-.4.53-.6c.62-.74,1.24-1.48,1.86-2.2.2-.24.41-.48.62-.71l.11-.13a6,6,0,0,1,.45-.53l.08-.08c.36-.43.74-.85,1.13-1.27.19-.22.4-.44.61-.66.66-.76,1.35-1.52,2-2.28.17-.18.33-.37.48-.55l.48-.54c.5-.53,1-1.09,1.49-1.62l3.35-3.61.21-.22q1.78-1.9,3.61-3.77c.28-.31.56-.62.85-.92s.73-.76,1.1-1.13l.25-.24a2.4,2.4,0,0,1,.24-.22,3.58,3.58,0,0,1,.26-.29l.26-.27.54-.5c.5-.53,1-1.06,1.52-1.59l.27-.26.25-.27.64-.66c.43-.42.89-.89,1.35-1.32.07-.07.15-.14.22-.22l1.54-1.51,1.78-1.7.79-.79.18-.18,1-.95h0s0,0,0,0l.34-.31c.58-.53,1.13-1,1.68-1.58a0,0,0,0,1,0,0h0c.66-.63,1.32-1.25,2-1.85a7.68,7.68,0,0,1,.6-.56l.14-.16a1.86,1.86,0,0,1,.29-.27c2.21-2.08,4.42-4.1,6.7-6.08l.29-.26.25-.22,0,0,.21-.19L203,165c2.11-1.88,4.26-3.73,6.44-5.58.87-.76,1.76-1.52,2.65-2.27l1.41-1.18,1.29-1.05.25-.22.25-.21a.87.87,0,0,1,.11-.09c.32-.3.65-.56,1-.83.69-.56,1.35-1.13,2-1.69l1.12-.86a0,0,0,0,1,0,0h0l1.53-1.24,2.31-1.83.87-.68c1.35-1.06,2.71-2.1,4.07-3.16s3-2.24,4.43-3.33c1.1-.82,2.19-1.62,3.29-2.39l1.24-.88,1.28-.95,0,0,1.3-.95c.43-.31.86-.61,1.3-.9.2-.15.41-.28.62-.42l1.84-1.3.44-.32,2.28-1.59c3.07-2.11,6.14-4.16,9.25-6.18a0,0,0,0,1,0,0l.93-.59,1.25-.8.33-.21,5.72-3.59.2-.13.29-.19.66-.44c.93-.56,1.82-1.12,2.75-1.65,1.45-.89,2.94-1.78,4.42-2.64.8-.48,1.59-.95,2.39-1.41q.85-.51,1.71-1l1.89-1.07.45-.28c.26-.16.53-.3.8-.45,1.62-.92,3.27-1.82,4.92-2.74l.62-.34c1.4-.77,2.79-1.53,4.19-2.27l.05,0,4.86-2.58s0-.07.06-.07c3.17-1.62,6.36-3.22,9.59-4.76l.33-.16.4-.2c1.52-.76,3.06-1.48,4.59-2.21,0,0,0,0,0,0v0l5-2.34c1.19-.53,2.35-1.06,3.54-1.55l1.58-.7.91-.4c.8-.36,1.6-.7,2.4-1l1.81-.77,1.42-.62,3.7-1.55c1.09-.45,2.19-.9,3.29-1.33l.35-.14.08,0c.5-.22,1-.41,1.47-.63,1.72-.68,3.45-1.35,5.17-2s3.48-1.33,5.22-2l2.24-.82,2.72-1c.57-.21,1.14-.41,1.72-.6l1-.34.45-.17c.78-.3,1.58-.57,2.39-.85,1.75-.63,3.5-1.22,5.29-1.75h0c.89-.33,1.77-.6,2.66-.86,2.48-.83,5-1.62,7.5-2.35,0,0,0,0,.07,0,.46-.13,1-.3,1.45-.43,1.16-.36,2.32-.69,3.47-1.06,5.69-1.65,11.37-3.17,17.12-4.56,1.71-.43,3.41-.84,5.12-1.21l.33-.07.23-.06c1.74-.44,3.48-.82,5.26-1.2C406.56,62,409,61.5,411.48,61l3.17-.59c.13,0,.23,0,.37-.07,1.88-.36,3.76-.72,5.68-1.05s4-.74,6-1l.72-.11,1.29-.2.58-.1.58-.1,1.09-.2c.36-.06.69-.09,1-.16a7.24,7.24,0,0,1,.83-.1l.3,0c.29-.06.59-.09.88-.15l.11,0,.6-.08.36-.05c.46-.08.93-.15,1.39-.21l2.79-.39,1.37-.19h0c.13,0,.22,0,.35-.07l.66-.1c.43,0,.89-.1,1.32-.16l.46,0,2-.23c.58,0,1.13-.14,1.68-.22l.24,0c.66-.1,1.32-.17,2-.23s1.29-.17,1.95-.23c.19,0,.43,0,.66-.07l.71-.06.58,0,.23,0,.11,0h.2a.13.13,0,0,1,.08,0,2.13,2.13,0,0,1,.37-.07,3.51,3.51,0,0,1,.56,0l1-.08c.5,0,1-.09,1.5-.15,1.82-.16,3.67-.36,5.48-.49.6-.07,1.16-.14,1.76-.17h.1a8.66,8.66,0,0,1,.89-.07,3.63,3.63,0,0,1,.57,0h.06l5.64-.39h.1c.17,0,.33,0,.5,0,.59-.07,1.19-.1,1.78-.13s1.39-.1,2.09-.1h.09a3,3,0,0,1,.53,0l2.18-.1c1.16-.07,2.35-.13,3.51-.17h0c.17,0,.23,0,.36,0,.7,0,1.39,0,2.08-.07l2.54,0h.7a1.22,1.22,0,0,1,.27,0,7.58,7.58,0,0,1,.82,0c.76,0,1.59,0,2.38-.06h2.78c1.75,0,3.47,0,5.19,0h.09l3.55,0,3.59,0,2.36,0,2.33.05h.25a1.06,1.06,0,0,1,.25,0c.66,0,1.32,0,2,.07l1,0,1.34,0h.13c1.59,0,3.17.13,4.76.2l1.26.07,2.49.14,1.24.09,1,.05h.29l.95.07h.23c.34,0,.67,0,1,.06,1.76.11,3.5.23,5.25.39l.7.07.86.06c2.13.16,4.29.37,6.41.57,4.86.43,9.71,1,14.51,1.65q14.11,1.83,28.21,4.59l.91.22c.16,0,.31.06.47.09l.47.09c4.56.89,9.09,1.85,13.65,2.94,4.1.95,8.31,2,12.42,3.11l.86.23.09,0c.4.06.77.18,1.2.27L621.28,69l.25.07h0c1.88.53,3.74,1.09,5.62,1.62,3.77,1.09,7.47,2.25,11.17,3.47l2.8.93c1.38.45,2.76.91,4.13,1.39l.27.09c1.29.43,2.56.86,3.83,1.32l2.72,1,1.76.64.94.36,1.24.45,1.24.48,1.7.64,1.48.56,1.94.75,3.87,1.51,1.51.61c1.07.44,2.15.87,3.21,1.32l.81.31.84.35.64.26.32.13,1.14.49.2.08,1.34.59,2.62,1.11,2.63,1.14.05,0a2.71,2.71,0,0,1,.61.27l.23.1c1.62.7,3.18,1.42,4.76,2.15l4.73,2.18,1.42.71c.69.35,1.39.68,2.08,1l1.65.79,5.06,2.55c.64.32,1.29.62,1.92,1,.21.1.42.21.62.33,2,1,4,2.05,6,3.11.49.25.94.49,1.43.73l.12.06.88.48c.2.11.39.23.58.35l1.14.6,1.14.62c.76.43,1.52.83,2.24,1.26l3.18,1.78,2.82,1.61,2.79,1.63h0l2.22,1.32c1.81,1.1,3.6,2.22,5.4,3.33,2.25,1.39,4.49,2.78,6.68,4.17l.65.42,1.25.82c2.32,1.49,4.64,3,6.92,4.55a4.76,4.76,0,0,1,.6.36h0s0,0,.08.06a.28.28,0,0,0,.09.07.05.05,0,0,0,0,0h0l.06,0c2,1.37,4.05,2.74,6.07,4.2.37.25.73.52,1.1.79.56.39,1.09.79,1.65,1.19h0l0,0c4.51,3.22,9,6.56,13.35,9.92h0c1.1.85,2.19,1.69,3.28,2.55s2.16,1.73,3.24,2.61c2.15,1.71,4.29,3.47,6.44,5.25,5.62,4.72,11.2,9.58,16.62,14.57,2.51,2.31,5,4.63,7.4,7s4.89,4.73,7.27,7.14a3,3,0,0,1,.4.4l.41.37.43.43c.25.24.5.5.75.75.55.55,1.09,1.13,1.61,1.68l0,0L823,190c.36.36.73.72,1.06,1.12,1.22,1.26,2.41,2.51,3.6,3.8l.36.39.36.4c.4.43.76.86,1.16,1.29,1.26,1.39,2.54,2.78,3.77,4.2l1.88,2.08c.21.21.42.43.61.65s.62.66.91,1l.35.42,0,0,.32.39q.66.72,1.29,1.47l.06.07c.43.5.84,1,1.26,1.5s.86,1,1.29,1.52l.6.72c1.15,1.36,2.31,2.75,3.43,4.14.14.16.27.33.4.49.76.93,1.49,1.82,2.22,2.74.56.66,1.09,1.32,1.65,2,1.75,2.18,3.47,4.36,5.18,6.57v0s0,0,0,0l.07.06h0a.46.46,0,0,1,.14.19s.07,0,.07.07c.18.26.37.51.56.76a1.37,1.37,0,0,0,.15.21c.23.32.47.64.71.95,1.12,1.47,2.22,2.93,3.3,4.4s2.16,2.93,3.24,4.42c.24.35.49.69.74,1l.75,1c.59.86,1.22,1.72,1.81,2.58.39.55.79,1.1,1.14,1.65l0,0,.24.35c.09.12.17.25.25.38.75,1.07,1.48,2.14,2.21,3.22s1.45,2.16,2.16,3.25c.49.7,1,1.42,1.42,2.12.32.48.65,1,1,1.45l.63,1,.82,1.29c.48.73,1,1.47,1.42,2.21.36.56.71,1.12,1.06,1.68q1.38,2.16,2.7,4.35c.56.92,1.11,1.84,1.66,2.76,1.15,1.85,2.21,3.71,3.28,5.56l.68,1.18a9.62,9.62,0,0,1,.57.93.25.25,0,0,1,.06.13c.15.2.26.4.38.59l.12.2a.06.06,0,0,1,0,.05,0,0,0,0,1,0,0l.14.23c.91,1.47,1.72,2.95,2.54,4.46.4.67.76,1.36,1.12,2l.08.14.28.53.92,1.67c.09.16.18.31.26.47.94,1.69,1.85,3.37,2.71,5.07.23.44.45.88.67,1.32a3.3,3.3,0,0,1,.23.41l.2.41c0,.07.07.17.1.23.21.39.41.78.63,1.16l.3.53a.29.29,0,0,0,0,.09.21.21,0,0,0,0,.07l.11.23c.27.55.56,1.11.82,1.66.64,1.26,1.29,2.5,1.92,3.77.21.42.42.85.62,1.28l.24.47a4.93,4.93,0,0,0,.23.46l3,6.21c1.12,2.41,2.21,4.79,3.3,7.2.86,1.92,1.69,3.83,2.51,5.78.13.27.24.54.36.81l.27.68.12.26c.12.26.23.53.34.8,0,0,0,0,0,0s0,0,0,0l.53,1.29c.29.71.59,1.41.89,2.13l.79,1.87c1.12,2.74,2.22,5.49,3.24,8.23v.06c1.59,4.1,3.14,8.2,4.63,12.36s2.8,8.06,4.09,12.16a2.58,2.58,0,0,1,.23.63q1.93,6.15,3.7,12.29c1,3.34,1.89,6.58,2.71,9.91.27,1,.53,1.85.76,2.81s.53,2.12.76,3.17c.93,3.41,1.69,6.81,2.45,10.25,1,4.56,2,9.05,2.81,13.58.69,3.43,1.29,6.84,1.85,10.27.13.73.26,1.36.33,2.09.4,2.14.69,4.26,1,6.44.26,1.35.43,2.68.62,4,.34,2.38.63,4.72.9,7.1q1.63,13.25,2.44,26.6.4,6.45.56,12.86c.2,4.65.27,9.35.27,14.07A449.89,449.89,0,0,1,932.49,615.85Z"/><path class="cls-1" d="M947.55,485.73q-.15-6.41-.56-12.86-.79-13.33-2.44-26.6c-.27-2.38-.56-4.72-.9-7.1-.19-1.35-.36-2.68-.62-4-.27-2.18-.56-4.3-1-6.44-.07-.73-.2-1.36-.33-2.09-.56-3.43-1.16-6.84-1.85-10.27-.83-4.53-1.79-9-2.81-13.58-.76-3.44-1.52-6.84-2.45-10.25-.23-1.05-.49-2.08-.76-3.17s-.49-1.85-.76-2.81c-.82-3.33-1.71-6.57-2.71-9.91q-1.77-6.15-3.7-12.29a2.58,2.58,0,0,0-.23-.63c-1.29-4.1-2.71-8.13-4.09-12.16s-3-8.26-4.63-12.36h0A820.66,820.66,0,0,0,81.31,341.4c.36-.95.72-1.9,1.09-2.85-.2.51-.42,1-.61,1.53a10.16,10.16,0,0,0-.5,1.32v0c-.26.63-.53,1.36-.72,2-1,2.45-1.79,4.93-2.68,7.37-1.09,3.14-2.18,6.31-3.21,9.45-2.54,7.87-5,15.8-7.17,23.92A446.24,446.24,0,0,0,54.23,542.36c.4,4.53.89,9.09,1.52,13.61,0,.2.07.37.07.63.53,4.49,1.15,9,1.91,13.38a395.57,395.57,0,0,0,8.46,40.68c2.41,9.84,5.32,19.53,8.43,29.11q3.57,10.65,7.56,21.05l0,0s0,0,0,0A815.56,815.56,0,0,0,501.41,776,816.15,816.15,0,0,0,917,663h0c.36-1,.76-2,1.15-3,.2-.46.3-.89.5-1.35.26-.63.53-1.36.72-2,1-2.68,2-5.36,3-8.07.13-.46.29-.89.43-1.28,1.09-3.11,2.18-6.32,3.2-9.52,2.31-7.17,4.46-14.44,6.48-21.87a449.89,449.89,0,0,0,15.33-116C947.82,495.08,947.75,490.38,947.55,485.73ZM499.86,655.44a153,153,0,1,1,153-153A153,153,0,0,1,499.86,655.44Z"/></svg>