<svg id="Camada_1" data-name="Camada 1" xmlns="http://www.w3.org/2000/svg" viewBox="0 0 2000 2000"><defs><style>.cls-1{fill:#612de0;}</style></defs><title>PurpleMindLogo</title><polygon class="cls-1" points="648.45 654.83 648.45 901.2 630.33 931.63 630.33 931.6 580.36 1015.53 567.76 1036.68 426.72 1273.6 354.56 1273.6 151.94 940.5 151.94 1346.74 1.69 1346.74 1.69 654.83 134.15 654.83 393.12 1084.8 648.13 654.83 648.45 654.83"/><polygon class="cls-1" points="1363.43 654.83 1363.43 1346.74 1231.96 1346.74 893.7 934.81 888.23 928.15 887.01 926.66 861.29 895.31 861.29 654.83 861.3 654.83 1205.29 1074.92 1205.29 654.83 1363.43 654.83"/><path class="cls-1" d="M1663.57,654.83H1387.8v691.91h275.77c198.59,0,334.74-136.41,334.74-346S1862.16,654.83,1663.57,654.83Zm85.67,407.48c21.28,1.36,40.7-2.9,58.13-13,1.62-.93,3.21-1.81,4.83-2.74,19.34,27.3,5.52,63.69-29,77-7.6,2.9-8.83,5.13-6.58,11.91,9.42,28.76-11,59-46.26,67-9.48,2.14-15.07,5.44-20,12.54-18,26-55.64,37.79-91.25,29.71-34.16-7.77-58.19-33.68-58.22-63q0-144.15,0-288.31c0-14.32,17.71-28.86,35.25-29,1.1,0,2.22.14,3.31.07,5.68-.27,9.34-3.18,9.42-7.4s-3.4-7.18-9.14-7.55a55.36,55.36,0,0,0-38,11.17c-1.4-2-.76-3.79-.76-5.48q-.08-35.1,0-70.19c0-22.22,20.55-35,47.08-29.42a319.71,319.71,0,0,1,65,21c-2.34,1.88-5.43,1.8-8,2.57-18.63,5.69-31.68,15.95-39,31-2.85,5.85-1.12,9.87,4.7,11.58,5.4,1.6,9.45-.44,12.43-6.24,9.13-17.83,30.68-27.48,52.76-23.59,23,4.06,38.26,19.85,37.45,38.91a27.19,27.19,0,0,1-1,5.85c-2.37,9.38-2.57,9.52-13.63,11.12-41.17,6-69.2,30.41-73.71,64.28a30.32,30.32,0,0,0-.26,5.93,8.53,8.53,0,0,0,9.51,7.94c5.59-.46,8.8-3.2,8.84-7.89a46.8,46.8,0,0,1,3.27-17c12-30.08,50.34-46,87.5-35.89,36.86,10,55.59,42.86,41.83,72.47-2.17,4.66-.69,7.82,3.82,10.79,23.7,15.55,32.14,40.86,21.33,63.6-10.72,22.54-37.6,36.63-67.69,35.36-4.6-.18-8.93-.14-11.78,3.44C1737.26,1055.88,1741.31,1061.8,1749.24,1062.31Zm-19.5-50.51c-22.92-1.15-36.73-12.13-46.67-28.11,2.6-.42,4.69-.8,6.83-1.06,44.25-5.55,75.34-36.07,73.94-72.63-.25-6.08-3.95-9.72-9.68-9.5-5.56.22-8.93,3.82-8.74,9.61s-.16,11.52-2.17,17.07c-7.44,20.64-23.81,34.35-49.4,39.51-25.84,5.24-48.41-.61-66.91-16.34-6-5.13-10.73-6-15.27-2.77s-4.13,7.78,1.84,13.07c10.37,9.15,22.73,16.21,37.55,19.27,8.48,1.76,12.69,5.06,16.48,11.42,12.26,20.52,31.76,33.75,60.93,35.35,7.61.42,12.2-2.38,12.41-7C1741.08,1015.21,1737,1012.16,1729.74,1011.8Zm-31,98.92a36.53,36.53,0,0,0-6.62,0c-5.56.91-7.22-.83-7-5.29.16-3.15-.94-6.38-1.7-9.56-9-37-50.06-54.06-83.71-57.27-6.25-.6-10.44,2-11.11,6.29-.68,4.55,2.75,7.92,9.33,8.59a110.37,110.37,0,0,1,22.41,4.53c29.07,9.33,46.18,28.22,46.69,51.2.08,3.26-.59,5-4.89,6.25a66.94,66.94,0,0,0-22,10.77c-19.94,14.58-28.94,33.45-32.07,54.57-.64,6.83,2.06,10.55,8.07,11,5.66.42,9.06-2.6,10.1-9.14a78.29,78.29,0,0,1,5-18.39c8.52-19.84,23.73-33.91,50.24-37.76,5.81-.86,11.88-.54,17.82-1,5.65-.49,9.25-3.77,8.69-7.92C1707.44,1113.23,1704.23,1110.89,1698.79,1110.72Z"/><path class="cls-1" d="M674.51,654.63v691.91H834.63V654.63Z"/></svg>